<svg width="340" height="260" viewBox="0 0 340 260" fill="none" xmlns="http://www.w3.org/2000/svg">
<path d="M172.553 107.253C172.45 107.062 172.293 106.905 172.101 106.802C171.91 106.699 171.693 106.654 171.476 106.673C171.243 106.672 171.016 106.755 170.838 106.907C170.66 107.058 170.543 107.269 170.506 107.499C170.283 107.569 170.506 109.087 170.506 109.087C170.58 109.232 170.667 109.371 170.766 109.5C170.892 109.658 171.058 109.778 171.246 109.849C171.435 109.919 171.639 109.938 171.837 109.901C172.035 109.865 172.22 109.776 172.371 109.643C172.523 109.51 172.635 109.339 172.697 109.147C172.842 108.847 172.906 108.514 172.88 108.181C172.855 107.848 172.742 107.528 172.553 107.253V107.253ZM170.919 108.488C170.863 108.425 170.793 108.374 170.715 108.34L170.692 108.303C170.617 108.173 170.645 108.005 170.529 107.894L170.682 107.486C170.794 107.434 170.905 107.342 171.017 107.342C171.128 107.342 171.286 107.486 171.346 107.643C171.513 108.098 171.43 108.265 170.928 108.493L170.919 108.488ZM171.894 109.166C171.819 109.17 171.745 109.148 171.685 109.103C171.624 109.058 171.582 108.993 171.564 108.92C171.555 108.873 171.555 108.825 171.565 108.778C171.575 108.732 171.594 108.688 171.621 108.649C171.649 108.61 171.684 108.576 171.724 108.551C171.765 108.526 171.81 108.509 171.857 108.502C171.905 108.499 171.953 108.505 171.998 108.521C172.044 108.537 172.086 108.561 172.121 108.593C172.157 108.625 172.186 108.664 172.207 108.707C172.228 108.751 172.24 108.798 172.242 108.846C172.233 108.931 172.193 109.01 172.132 109.07C172.07 109.129 171.989 109.165 171.903 109.171L171.894 109.166Z" fill="black"/>
<path d="M166.091 107.574C165.998 107.436 165.872 107.323 165.724 107.245C165.577 107.167 165.413 107.126 165.246 107.126C165.08 107.126 164.916 107.167 164.768 107.245C164.621 107.323 164.495 107.436 164.401 107.574C164.106 107.98 163.95 108.471 163.958 108.973C163.966 109.476 164.136 109.962 164.443 110.359C164.543 110.492 164.674 110.598 164.824 110.669C164.974 110.74 165.139 110.774 165.305 110.768C165.471 110.761 165.633 110.715 165.777 110.632C165.921 110.55 166.043 110.434 166.133 110.294C166.412 109.919 166.556 109.461 166.541 108.994C166.547 108.485 166.389 107.987 166.091 107.574V107.574ZM164.81 109.11C164.615 109.166 164.387 108.976 164.346 108.725C164.332 108.631 164.332 108.536 164.346 108.442C164.356 108.36 164.391 108.284 164.447 108.224C164.503 108.164 164.576 108.124 164.657 108.108C164.737 108.093 164.819 108.105 164.891 108.142C164.963 108.179 165.021 108.238 165.056 108.312C165.098 108.408 165.13 108.507 165.153 108.609C165.126 108.878 165.019 109.031 164.81 109.11V109.11ZM165.738 109.848C165.548 109.848 165.339 109.621 165.395 109.449C165.411 109.369 165.453 109.297 165.514 109.243C165.575 109.19 165.652 109.158 165.734 109.152C165.938 109.152 166.142 109.38 166.091 109.556C166.072 109.634 166.027 109.704 165.964 109.754C165.901 109.805 165.824 109.833 165.743 109.834L165.738 109.848Z" fill="#080707"/>
<path d="M213.302 116.538C212.931 116.319 212.549 116.122 212.155 115.948C210.155 115.136 208.214 114.193 206.246 113.316C204.852 112.693 203.498 111.983 202.193 111.19C200.968 110.448 199.842 109.555 198.842 108.53C197.89 107.555 197.031 106.497 196.163 105.443C195.831 105.029 195.461 104.647 195.058 104.301C194.526 103.841 193.861 103.564 193.16 103.512C192.927 103.504 192.695 103.473 192.468 103.419C191.823 103.252 191.637 103.038 191.637 102.375C191.627 101.207 191.841 100.049 192.268 98.9625C193.075 96.918 194.256 95.0415 195.75 93.4291C196.086 93.0568 196.481 92.743 196.92 92.5006C197.198 92.3503 197.51 92.2734 197.826 92.2773C198.142 92.2812 198.452 92.3657 198.726 92.5228C199 92.68 199.23 92.9045 199.393 93.1752C199.556 93.4459 199.648 93.7538 199.659 94.0697V95.1699C199.651 95.3697 199.708 95.5667 199.821 95.7316C199.863 95.8035 199.928 95.8594 200.005 95.8904C200.083 95.9215 200.168 95.9261 200.248 95.9033C200.312 95.8851 200.368 95.8449 200.405 95.7897C200.443 95.7345 200.459 95.6679 200.452 95.6016C200.452 95.1049 200.425 94.6035 200.452 94.1068C200.473 93.7524 200.408 93.3982 200.261 93.0747C200.115 92.7513 199.892 92.4682 199.612 92.25C198.805 91.5768 197.909 91.2147 196.855 91.665C196.748 91.7085 196.632 91.7219 196.518 91.7039C196.404 91.6859 196.298 91.6372 196.21 91.5629C193.944 90.0588 192.227 88.1602 191.688 85.3888C191.615 85.0316 191.504 84.6831 191.358 84.349C191.176 83.8978 190.832 83.5315 190.392 83.3226C189.953 83.1136 189.451 83.0774 188.986 83.2209C188.734 83.3049 188.475 83.364 188.211 83.3973C188.048 83.4363 187.876 83.4217 187.721 83.3557C187.567 83.2896 187.437 83.1757 187.352 83.0306L187.194 82.7753C187.023 82.4864 186.76 82.2631 186.447 82.1411C186.134 82.0191 185.789 82.0054 185.468 82.1022C185.274 82.1459 185.083 82.2017 184.897 82.2693C184.698 82.3552 184.482 82.3921 184.266 82.3768C184.05 82.3614 183.841 82.2943 183.657 82.1811C183.338 81.9952 182.969 81.9132 182.602 81.9465C182.234 81.9797 181.886 82.1266 181.605 82.3668C181.338 82.5631 181.086 82.7804 180.853 83.0167C180.722 83.1681 180.552 83.2815 180.362 83.3452C180.172 83.4089 179.968 83.4205 179.772 83.3788C179.273 83.3022 178.765 83.4202 178.351 83.7084C177.782 84.0515 177.261 84.4682 176.801 84.9478C176.541 85.1985 176.336 85.5745 176.011 85.672C175.653 85.6995 175.293 85.6537 174.953 85.5374C174.927 85.4384 174.908 85.3375 174.897 85.2356V84.8364C174.822 84.0719 174.574 83.3346 174.171 82.68C173.769 82.0255 173.224 81.4707 172.576 81.0577C172.37 80.8852 172.107 80.7943 171.838 80.8024C171.771 80.8094 171.708 80.8354 171.655 80.8773C171.602 80.9193 171.563 80.9754 171.541 81.0391C171.513 81.1002 171.509 81.1693 171.528 81.2335C171.548 81.2977 171.59 81.3524 171.648 81.3873C171.759 81.4523 171.903 81.4708 172.01 81.5451C172.648 81.9093 173.179 82.4354 173.549 83.0703C173.919 83.7052 174.115 84.4265 174.117 85.1614C174.139 85.4815 174.044 85.7986 173.851 86.0544C173.657 86.3103 173.378 86.4877 173.064 86.554C172.615 86.7075 172.124 86.6833 171.693 86.4865C171.261 86.2897 170.921 85.9351 170.743 85.4956C170.448 84.8286 170.187 84.1468 169.963 83.453C169.879 83.2256 170.032 83.0817 170.209 82.9656C170.385 82.8496 170.729 82.8913 170.989 82.8449C171.156 82.8124 171.309 82.7196 171.29 82.52C171.282 82.4371 171.245 82.3595 171.187 82.2997C171.129 82.2399 171.053 82.2014 170.97 82.1904C170.778 82.1321 170.576 82.1182 170.378 82.1495C170.18 82.1809 169.992 82.2568 169.828 82.3714C169.715 82.4625 169.576 82.5145 169.431 82.5195C169.286 82.5245 169.144 82.4823 169.025 82.3993C168.423 82.1143 167.762 81.9759 167.097 81.9953C166.431 82.0146 165.779 82.1912 165.195 82.5107C164.962 82.6261 164.703 82.6804 164.443 82.6685C163.173 82.6878 161.917 82.9281 160.729 83.3788C160.431 83.5149 160.094 83.5412 159.778 83.453C159.396 83.3243 158.987 83.3034 158.594 83.3927C157.773 83.5393 156.986 83.8368 156.273 84.2701C154.62 85.3888 153.386 86.8093 153 88.838C152.958 89.0329 152.912 89.2279 152.866 89.4229C152.53 90.6426 152.374 91.9045 152.401 93.1691C152.459 94.3636 152.614 95.5513 152.866 96.7204C153.115 97.9618 153.67 99.1215 154.48 100.094C155.291 101.067 156.332 101.822 157.508 102.291C157.842 102.435 158.325 102.393 158.478 102.723C158.564 103.075 158.586 103.44 158.543 103.8C158.566 104.366 158.599 104.928 158.631 105.494C158.664 106.06 158.682 106.692 158.743 107.286C158.767 107.465 158.752 107.648 158.697 107.821C158.643 107.993 158.55 108.151 158.427 108.284C158.009 108.748 157.642 109.273 157.262 109.774C155.789 111.661 154.485 113.672 153.362 115.786C152.991 116.456 152.68 117.158 152.434 117.884C151.807 119.982 152.699 121.426 154.829 121.83C156.967 122.214 159.17 121.999 161.194 121.208C161.403 121.129 161.588 120.934 161.853 121.069C162.159 121.565 162.466 122.076 162.781 122.573C163.345 123.399 164.066 124.105 164.903 124.652C165.752 125.249 166.762 125.573 167.799 125.581C168.563 125.595 169.327 125.571 170.088 125.506C172.166 125.268 174.23 124.923 176.271 124.471C176.594 124.388 176.93 124.369 177.26 124.416C177.393 124.434 177.519 124.483 177.63 124.558C177.741 124.632 177.834 124.731 177.901 124.847C178.033 125.115 178.082 125.415 178.042 125.711C178.001 126.006 177.873 126.283 177.673 126.504C177.387 126.787 177.018 126.97 176.62 127.029C176.42 127.057 176.22 127.029 176.025 127.085C175.842 127.101 175.665 127.158 175.505 127.249C175.346 127.341 175.208 127.466 175.101 127.616C174.994 127.766 174.921 127.937 174.887 128.118C174.853 128.298 174.858 128.485 174.902 128.663C174.965 129.127 175.151 129.566 175.44 129.935C175.972 130.619 176.651 131.174 177.427 131.56C178.033 131.837 178.7 131.953 179.363 131.894C180.289 131.805 181.195 131.568 182.046 131.193C183.599 130.599 185.018 129.705 186.224 128.561C186.911 127.903 187.43 127.09 187.74 126.191C188.05 125.291 188.142 124.331 188.007 123.39C187.984 123.171 187.83 122.958 187.946 122.726C188.164 122.641 188.4 122.62 188.629 122.665C190.029 122.699 191.43 122.587 192.807 122.331C195.021 121.895 197.231 121.403 199.427 120.911C203.251 119.93 207.01 118.706 210.679 117.248C210.841 117.193 210.996 117.122 211.143 117.034C211.403 116.863 211.348 116.668 211.171 116.477C211.275 116.445 211.384 116.436 211.491 116.449C211.598 116.463 211.701 116.499 211.793 116.556C212.179 116.747 212.573 116.918 212.958 117.113C213.158 117.216 213.334 117.248 213.488 117.053C213.641 116.858 213.585 116.705 213.302 116.538V116.538ZM176.545 86.5262C176.669 86.2891 176.826 86.0704 177.01 85.8763C177.429 85.4511 177.871 85.0483 178.333 84.6693C178.541 84.4779 178.79 84.3366 179.061 84.2561C179.332 84.1757 179.618 84.1582 179.897 84.2051C180.144 84.2428 180.396 84.2203 180.632 84.1395C180.868 84.0587 181.081 83.9219 181.252 83.7409C181.499 83.5227 181.717 83.2766 181.995 83.0817C182.182 82.9122 182.419 82.8079 182.67 82.7845C182.921 82.761 183.173 82.8197 183.388 82.9517C183.641 83.113 183.931 83.2074 184.231 83.2261C184.53 83.2448 184.83 83.1871 185.101 83.0585C185.222 83.0074 185.361 82.9935 185.481 82.9471C185.578 82.8963 185.684 82.8655 185.793 82.8565C185.903 82.8475 186.012 82.8605 186.116 82.8947C186.22 82.9289 186.316 82.9836 186.398 83.0556C186.481 83.1276 186.548 83.2154 186.596 83.3138C187.125 84.3026 187.96 84.349 188.917 84.1215C190.082 83.8383 190.56 84.1215 190.89 85.2635C190.969 85.5513 191.038 85.8438 191.103 86.1316C191.423 87.5292 192.098 88.821 193.062 89.8824C193.866 90.8038 194.796 91.607 195.824 92.2685C195.3 92.8766 194.817 93.4151 194.353 93.9722C193.537 94.9383 192.855 96.0093 192.324 97.1567C192.199 97.4223 192.021 97.6599 191.802 97.8553C191.582 98.0508 191.326 98.2 191.047 98.2941C189.771 98.7859 188.388 98.9332 187.037 98.7211C186.405 98.6366 185.818 98.3519 185.361 97.9088C184.507 97.1661 183.874 96.2024 183.532 95.1235C183.278 94.1956 183.081 93.253 182.942 92.301C182.808 91.5165 182.687 90.732 182.529 89.9521C182.426 89.5001 182.294 89.0551 182.134 88.6198C181.992 88.2103 181.762 87.8365 181.461 87.5242C181.246 87.2437 180.937 87.0506 180.59 86.9806C180.244 86.9106 179.884 86.9685 179.577 87.1436C178.908 87.4314 178.244 87.7378 177.581 88.0349C177.339 88.1416 177.116 88.2577 176.852 88.3505C176.806 88.3741 176.755 88.3862 176.703 88.3859C176.652 88.3855 176.601 88.3727 176.555 88.3486C176.51 88.3244 176.471 88.2896 176.442 88.2471C176.412 88.2046 176.394 88.1557 176.387 88.1045C176.245 87.5768 176.301 87.0152 176.545 86.5262V86.5262ZM165.845 83.0306C166.636 82.7681 167.486 82.7406 168.292 82.9517C168.485 82.9986 168.665 83.0892 168.817 83.2163C168.97 83.3434 169.092 83.5038 169.174 83.6852C169.262 83.8987 169.369 84.1076 169.443 84.3258C169.668 85.1462 170.032 85.9219 170.52 86.619C170.347 86.8836 170.102 87.0931 169.814 87.2225C169.623 87.3222 169.41 87.3742 169.194 87.3742C168.979 87.3742 168.766 87.3222 168.575 87.2225C168.18 87.0455 167.833 86.7765 167.563 86.438C166.868 85.4684 166.236 84.456 165.669 83.4066C165.653 83.3706 165.646 83.3317 165.646 83.2925C165.647 83.2533 165.656 83.2146 165.673 83.1792C165.689 83.1437 165.713 83.1121 165.743 83.0865C165.773 83.0609 165.808 83.0419 165.845 83.0306V83.0306ZM163.835 83.4159C163.999 83.3909 164.166 83.3801 164.332 83.3834C164.462 83.367 164.594 83.3924 164.709 83.4557C164.824 83.5191 164.917 83.6173 164.972 83.7362C165.358 84.4325 165.78 85.1289 166.193 85.7927C166.402 86.1316 166.657 86.4565 166.862 86.7861C167.066 87.1157 167.112 87.3293 166.829 87.6542C166.615 87.9122 166.337 88.109 166.022 88.2247C165.707 88.3405 165.368 88.3711 165.037 88.3134C164.277 88.2004 163.571 87.8494 163.023 87.3107C162.916 87.23 162.836 87.1204 162.791 86.995C162.498 85.9134 161.788 85.0639 161.124 84.0148C162.085 83.8012 162.958 83.6016 163.835 83.4159V83.4159ZM158.627 101.79C158.357 101.975 158.162 101.822 158.014 101.748C156.363 101.09 155.014 99.8447 154.226 98.2523C153.975 97.7464 153.792 97.2094 153.683 96.6554C153.352 95.2313 153.196 93.7721 153.218 92.3103C153.249 91.5809 153.374 90.8584 153.59 90.161C153.723 89.7147 153.949 89.3018 154.254 88.9494C154.461 88.6678 154.757 88.4651 155.095 88.3748C155.432 88.2845 155.791 88.312 156.11 88.4527C156.328 88.5356 156.539 88.6349 156.742 88.7498C156.913 88.8483 157.078 88.9584 157.234 89.0794C157.475 89.2511 157.698 89.4275 157.977 89.6318C157.415 90.7267 156.984 91.8845 156.695 93.0809C156.528 93.7912 156.361 94.506 156.231 95.2256C156.059 96.2438 156.144 97.2888 156.477 98.2662C156.798 99.1668 157.262 99.8817 158.306 99.9977C158.51 99.9977 158.58 100.169 158.585 100.346C158.627 100.843 158.627 101.339 158.627 101.79V101.79ZM157.652 88.4155C157.225 88.106 156.756 87.8605 156.259 87.6867C155.996 87.5833 155.713 87.5357 155.431 87.5469C155.148 87.5581 154.87 87.6278 154.616 87.7517C154.589 87.7786 154.557 87.8 154.522 87.8146C154.487 87.8292 154.449 87.8367 154.411 87.8367C154.373 87.8367 154.336 87.8292 154.301 87.8146C154.266 87.8 154.234 87.7786 154.207 87.7517C154.602 86.9077 155.174 86.1593 155.886 85.5582C156.598 84.9571 157.431 84.5176 158.329 84.2701C158.839 84.0984 159.391 84.104 159.897 84.2861C160.403 84.4681 160.832 84.8159 161.115 85.2728C161.324 85.6534 161.579 86.0016 161.788 86.3823C162.104 86.9699 162.253 87.633 162.22 88.2995C162.173 89.3393 161.579 89.8546 160.525 89.7618C159.962 89.7042 159.419 89.5201 158.938 89.2233C158.455 88.9772 158.042 88.6848 157.633 88.4155H157.652ZM161.277 120.414C160.716 120.618 160.154 120.822 159.578 120.971C158 121.392 156.343 121.423 154.75 121.059C154.403 121.011 154.075 120.871 153.801 120.653C153.526 120.435 153.316 120.147 153.191 119.82C153.072 119.508 153.04 119.169 153.098 118.84C153.212 118.186 153.423 117.552 153.724 116.96C154.349 115.64 155.072 114.369 155.888 113.158C156.788 111.845 157.745 110.559 158.673 109.263C158.768 109.163 158.87 109.07 158.979 108.985C159.198 110.35 159.388 111.594 159.606 112.838C159.908 114.771 160.35 116.679 160.929 118.548C161.087 119.012 161.259 119.476 161.458 119.94C161.523 120.182 161.468 120.335 161.259 120.414H161.277ZM176.671 123.701C175.459 123.849 174.261 124.165 173.054 124.374C171.453 124.701 169.824 124.875 168.189 124.894C166.983 124.9 165.814 124.479 164.889 123.705C163.992 122.959 163.263 122.032 162.749 120.985C161.941 119.42 161.347 117.754 160.98 116.032C160.372 113.377 159.917 110.689 159.615 107.982C159.367 105.426 159.285 102.857 159.369 100.29V97.4445C161.291 96.4047 164.476 95.8383 166.333 96.2144L165.404 96.6786C164.92 96.8922 164.49 97.2091 164.141 97.607C164.066 97.6738 164.014 97.7634 163.994 97.8622C163.974 97.9611 163.987 98.0638 164.03 98.1548C164.077 98.244 164.146 98.3188 164.232 98.3712C164.318 98.4235 164.417 98.4514 164.517 98.4519C164.72 98.46 164.924 98.4538 165.126 98.4333C168.246 98.0788 171.402 98.6164 174.229 99.9838C174.316 100.032 174.4 100.086 174.48 100.146C174.48 100.694 174.052 100.351 173.834 100.416C173.616 100.481 173.254 100.369 172.975 100.499C172.683 100.559 172.391 100.61 172.103 100.68C172.02 100.698 171.944 100.741 171.886 100.803C171.828 100.866 171.79 100.944 171.778 101.028C171.773 101.13 171.801 101.23 171.858 101.314C171.915 101.397 171.997 101.46 172.093 101.493C172.218 101.539 172.345 101.578 172.474 101.609C174.428 102.271 176.237 103.301 177.803 104.645C179.545 106.147 181.154 107.796 182.613 109.575C182.678 109.649 182.729 109.737 182.789 109.816C182.885 109.973 183.031 110.093 183.204 110.157C183.377 110.22 183.566 110.222 183.741 110.164C184.442 109.974 185.133 109.839 185.858 109.644C186.126 109.558 186.409 109.531 186.689 109.565C186.969 109.599 187.238 109.693 187.478 109.84C187.718 109.987 187.923 110.184 188.08 110.418C188.237 110.652 188.342 110.917 188.387 111.195C188.524 112.154 188.399 113.132 188.025 114.026C187.77 114.64 187.459 115.229 187.097 115.786C186.647 116.483 186.266 117.224 185.96 117.995C185.606 118.793 185.534 119.686 185.755 120.53C185.797 120.636 185.802 120.753 185.77 120.862C185.738 120.971 185.671 121.066 185.579 121.134C184.934 121.762 184.157 122.237 183.304 122.526C182.16 122.873 180.989 123.126 179.804 123.283C178.76 123.417 177.71 123.575 176.652 123.701H176.671ZM187.408 124.397C187.398 125.078 187.253 125.751 186.982 126.376C186.711 127.002 186.32 127.567 185.83 128.041C184.723 129.093 183.422 129.919 182 130.474C181.186 130.848 180.318 131.089 179.428 131.188C178.968 131.268 178.495 131.198 178.077 130.989C178.077 130.836 178.198 130.771 178.309 130.72C179.11 130.316 179.851 129.802 180.51 129.192C182.698 127.262 184.557 124.988 186.015 122.461C186.131 122.262 186.238 122.057 186.405 121.751C186.747 122.098 187.013 122.513 187.186 122.968C187.358 123.424 187.434 123.91 187.408 124.397V124.397ZM211.185 116.538V116.496C210.99 116.431 210.828 116.533 210.647 116.598C207.736 117.61 204.839 118.682 201.873 119.532C198.521 120.502 195.11 121.251 191.66 121.774C190.476 121.947 189.277 122.006 188.081 121.951C187.899 121.959 187.718 121.916 187.558 121.827C187.399 121.737 187.268 121.605 187.181 121.445C187.077 121.273 186.962 121.109 186.837 120.952C186.615 120.657 186.467 120.313 186.405 119.949C186.343 119.585 186.368 119.211 186.48 118.859C186.791 117.81 187.26 116.814 187.872 115.906C187.947 115.797 188.059 115.72 188.188 115.688C189.489 115.247 190.623 114.418 191.437 113.311C192.598 111.844 193.301 110.069 193.461 108.205C193.591 107.054 193.731 105.884 193.865 104.742C193.886 104.684 193.914 104.63 193.949 104.58C194.139 104.524 194.26 104.658 194.39 104.751C194.836 105.099 195.238 105.499 195.587 105.944C196.117 106.585 196.646 107.226 197.184 107.857C198.736 109.687 200.608 111.219 202.709 112.378C205.122 113.715 207.648 114.806 210.169 115.92C210.498 116.069 210.837 116.208 211.167 116.361C211.19 116.361 211.167 116.436 211.167 116.491H211.194L211.185 116.538ZM260.109 182.828C259.984 182.828 259.942 182.735 259.914 182.638C259.887 182.507 259.891 182.371 259.925 182.242C259.96 182.113 260.025 181.994 260.114 181.895C260.527 181.296 260.945 180.697 261.395 180.126C262.639 178.539 263.906 176.969 265.164 175.391C266.52 173.683 267.875 171.981 269.231 170.285C269.867 169.482 270.493 168.669 271.125 167.862C271.226 167.73 271.339 167.609 271.464 167.499C271.522 167.436 271.601 167.396 271.687 167.387C271.773 167.378 271.859 167.402 271.928 167.453C271.964 167.479 271.994 167.511 272.016 167.549C272.039 167.587 272.053 167.629 272.059 167.673C272.064 167.717 272.06 167.761 272.047 167.803C272.034 167.845 272.012 167.884 271.984 167.917C271.826 168.168 271.663 168.419 271.482 168.655L266.283 175.294C265.447 176.366 264.654 177.466 263.781 178.501C262.718 179.773 261.687 181.064 260.722 182.405C260.596 182.559 260.455 182.699 260.299 182.823C260.248 182.819 260.169 182.814 260.109 182.828V182.828ZM227.526 24.8086C227.498 24.8689 227.437 25.0175 227.368 25.166C226.343 27.247 225.209 29.2722 223.97 31.2333C222.786 33.0902 221.574 34.9471 220.377 36.8364C219.861 37.6442 219.346 38.4565 218.826 39.2643C218.742 39.4051 218.644 39.5373 218.534 39.6589C218.496 39.7146 218.438 39.7533 218.372 39.7663C218.306 39.7794 218.237 39.7658 218.181 39.7285C218.123 39.6955 218.077 39.6449 218.049 39.584C218.022 39.5231 218.014 39.455 218.028 39.3896C218.089 39.1687 218.174 38.9553 218.283 38.7536C218.705 38.0387 219.123 37.3238 219.578 36.6322C221.283 34.0666 222.928 31.4639 224.513 28.824C225.023 27.9699 225.474 27.0832 225.952 26.2151C226.212 25.7509 226.481 25.2867 226.736 24.8225C226.829 24.6457 226.987 24.5123 227.177 24.4511C227.331 24.4093 227.549 24.5672 227.526 24.8086V24.8086ZM264.264 63.8074C264.283 64.02 264.218 64.2316 264.083 64.397C263.489 65.3946 262.947 66.4219 262.458 67.4747C261.297 69.7076 260.137 71.9544 258.986 74.1826C258.382 75.3246 257.737 76.4434 257.101 77.5668C256.997 77.733 256.878 77.8885 256.743 78.031C256.689 78.0989 256.612 78.1448 256.527 78.1602C256.442 78.1756 256.353 78.1594 256.279 78.1146C256.243 78.0935 256.212 78.0656 256.188 78.0324C256.163 77.9992 256.145 77.9614 256.135 77.9212C256.125 77.8809 256.123 77.8391 256.13 77.7982C256.136 77.7573 256.151 77.7181 256.172 77.6828C256.293 77.4089 256.423 77.1397 256.567 76.8797C257.273 75.5707 258.006 74.2708 258.698 72.9525C259.928 70.6035 261.13 68.2407 262.351 65.8871C262.658 65.3022 262.987 64.7265 263.326 64.1556C263.453 63.9637 263.601 63.7862 263.767 63.6264C263.787 63.5999 263.812 63.5777 263.841 63.5611C263.87 63.5446 263.902 63.5341 263.934 63.5302C263.967 63.5263 264.001 63.5291 264.033 63.5384C264.065 63.5478 264.094 63.5635 264.12 63.5846C264.181 63.649 264.23 63.7246 264.264 63.8074V63.8074ZM259.125 138.152C259.074 138.15 259.025 138.131 258.987 138.097C258.949 138.063 258.924 138.017 258.916 137.966C258.889 137.852 258.889 137.734 258.916 137.621C258.942 137.507 258.995 137.401 259.069 137.311C259.431 136.759 259.779 136.193 260.174 135.663C261.916 133.324 263.56 130.918 265.104 128.445C265.861 127.238 266.678 126.068 267.462 124.88C267.593 124.646 267.807 124.47 268.061 124.388C268.108 124.37 268.16 124.369 268.208 124.384C268.255 124.4 268.297 124.43 268.326 124.471C268.373 124.552 268.4 124.643 268.405 124.736C268.405 124.792 268.358 124.857 268.321 124.912C266.891 127.14 265.489 129.392 264.018 131.597C262.917 133.245 261.724 134.846 260.573 136.453C260.225 136.94 259.881 137.423 259.524 137.901C259.482 137.972 259.424 138.031 259.355 138.075C259.285 138.118 259.206 138.145 259.125 138.152V138.152ZM94.6807 157.087C94.637 157.204 94.5776 157.315 94.5043 157.417C93.5759 158.554 92.7913 159.77 91.9882 160.987L88.8269 165.796L86.2691 169.695C86.2113 169.777 86.1443 169.852 86.0695 169.918C86.0255 169.968 85.9643 170 85.898 170.007C85.8318 170.013 85.7654 169.995 85.712 169.955C85.6544 169.92 85.6099 169.867 85.5856 169.804C85.5612 169.741 85.5584 169.672 85.5774 169.607C85.7218 169.235 85.8957 168.875 86.0973 168.53C86.7658 167.462 87.4575 166.413 88.1445 165.359C89.1519 163.804 90.1453 162.235 91.1852 160.717C92.0113 159.439 92.9151 158.213 93.8915 157.045C94.0076 156.885 94.1694 156.764 94.3558 156.697C94.4997 156.655 94.7132 156.822 94.6807 157.087V157.087ZM57.8451 93.3966C57.8336 93.6635 57.7689 93.9255 57.6548 94.1672C56.5082 97.6534 55.3337 101.13 53.941 104.538C53.695 105.151 53.4768 105.777 53.2354 106.395C53.1783 106.549 53.1019 106.696 53.008 106.831C52.9767 106.889 52.9267 106.935 52.866 106.961C52.8053 106.987 52.7375 106.992 52.6737 106.975C52.611 106.951 52.5565 106.909 52.517 106.855C52.4775 106.8 52.4545 106.736 52.4509 106.669C52.4373 106.369 52.5063 106.072 52.6505 105.81C53.0637 104.658 53.5 103.512 53.9225 102.365C54.3031 101.344 54.6931 100.323 55.0598 99.2968C55.6633 97.6117 56.2436 95.9266 56.8378 94.2414C56.9585 93.8979 57.1024 93.5637 57.2416 93.2248C57.3113 93.053 57.4273 92.9463 57.6176 93.002C57.808 93.0577 57.8312 93.2341 57.8451 93.3966V93.3966ZM280.716 27.7471C280.696 27.8432 280.662 27.9356 280.613 28.0209C278.729 30.2167 277.28 32.7235 275.642 35.091C274.908 36.154 274.212 37.2449 273.581 38.3776C273.45 38.6034 273.294 38.8137 273.116 39.0043C273.074 39.0252 273.027 39.0361 272.979 39.0361C272.932 39.0361 272.885 39.0252 272.842 39.0043C272.762 38.9529 272.704 38.8735 272.68 38.7815C272.662 38.6827 272.664 38.5815 272.686 38.4835C272.707 38.3855 272.748 38.2927 272.805 38.2105C273.13 37.6349 273.427 37.036 273.785 36.4836C275.53 33.7819 277.304 31.1033 279.221 28.5177C279.458 28.1971 279.729 27.903 280.028 27.6403C280.088 27.5805 280.164 27.5394 280.246 27.5221C280.329 27.5048 280.414 27.512 280.493 27.5428C280.576 27.6009 280.65 27.6695 280.716 27.7471V27.7471ZM230.534 72.1587C230.482 72.4275 230.362 72.6785 230.186 72.8875C229.322 74.1826 228.454 75.4732 227.6 76.773C226.616 78.2677 225.641 79.7672 224.661 81.2619C224.561 81.4327 224.447 81.5956 224.322 81.7494C224.305 81.7777 224.282 81.8022 224.255 81.8214C224.228 81.8406 224.197 81.8541 224.164 81.861C224.132 81.868 224.098 81.8682 224.065 81.8618C224.033 81.8554 224.002 81.8424 223.974 81.8236C223.917 81.7895 223.871 81.7391 223.842 81.6788C223.813 81.6185 223.802 81.551 223.812 81.4848C223.829 81.3538 223.868 81.2267 223.928 81.1088C224.128 80.6906 224.35 80.2831 224.592 79.8879C225.83 78.0124 227.081 76.1401 228.347 74.2708C228.811 73.5838 229.276 72.9107 229.763 72.2329C229.834 72.1223 229.918 72.0209 230.014 71.9312C230.063 71.8862 230.128 71.8612 230.195 71.8612C230.262 71.8612 230.326 71.8862 230.376 71.9312C230.439 71.9995 230.492 72.076 230.534 72.1587V72.1587ZM73.6192 48.9989C73.5809 49.1565 73.5328 49.3115 73.4753 49.4631C72.6397 51.371 71.9527 53.3393 71.2099 55.2844C70.8478 56.2407 70.4904 57.2016 70.119 58.1579C70.0456 58.3403 69.9454 58.5108 69.8219 58.6639C69.7812 58.7175 69.7216 58.7537 69.6551 58.7649C69.5887 58.7761 69.5205 58.7616 69.4645 58.7242C69.4024 58.6985 69.3503 58.6535 69.316 58.5957C69.2817 58.538 69.267 58.4707 69.2741 58.4039C69.33 58.1466 69.4044 57.8937 69.4969 57.6472C70.1886 55.7904 70.8896 53.9335 71.5906 52.0766C71.9202 51.2132 72.2915 50.3637 72.6583 49.5142C72.7469 49.227 72.926 48.9762 73.1689 48.7993C73.2088 48.7748 73.2531 48.7585 73.2993 48.7513C73.3456 48.7442 73.3927 48.7463 73.4381 48.7575C73.5124 48.7946 73.5496 48.906 73.6192 48.9989V48.9989ZM144.575 51.1064C144.605 51.3189 144.566 51.5355 144.463 51.7238C143.331 54.4488 142.142 57.1459 140.75 59.7548C140.624 59.9869 140.504 60.219 140.364 60.4511C140.317 60.5201 140.25 60.5734 140.172 60.604C140.095 60.6346 140.009 60.6412 139.928 60.6229C139.784 60.6229 139.668 60.5115 139.691 60.3676C139.723 60.2047 139.781 60.0479 139.863 59.9033C140.476 58.6175 141.102 57.3362 141.72 56.0457C142.374 54.653 143.001 53.2047 143.642 51.7888C143.767 51.5176 143.911 51.2555 144.073 51.0043C144.091 50.9759 144.115 50.9514 144.142 50.932C144.17 50.9127 144.201 50.899 144.233 50.8917C144.266 50.8843 144.3 50.8835 144.333 50.8893C144.366 50.8951 144.398 50.9074 144.426 50.9254C144.486 50.9766 144.536 51.0379 144.575 51.1064V51.1064ZM114.21 63.0971C114.2 63.1677 114.179 63.2364 114.15 63.3014C113.57 64.4155 112.989 65.5343 112.4 66.6391C111.898 67.5676 111.397 68.496 110.877 69.4244C110.538 70.0325 110.172 70.6175 109.814 71.2117C109.763 71.2999 109.717 71.3881 109.661 71.4716C109.531 71.6712 109.373 71.843 109.099 71.7548C108.904 71.6898 108.863 71.467 109.025 71.1559C109.457 70.3389 109.907 69.5265 110.353 68.7188C110.975 67.5908 111.606 66.4674 112.21 65.3393L113.263 63.4267C113.319 63.289 113.404 63.1649 113.512 63.0631C113.62 62.9613 113.749 62.8842 113.89 62.8372C113.929 62.8297 113.968 62.8308 114.007 62.8404C114.045 62.8499 114.08 62.8677 114.111 62.8925C114.141 62.9173 114.166 62.9484 114.183 62.9838C114.2 63.0191 114.21 63.0578 114.21 63.0971ZM283.199 86.4008C283.22 86.566 283.175 86.7329 283.074 86.865C282.022 88.6229 280.966 90.3838 279.908 92.1478C279.444 92.9138 278.979 93.6705 278.492 94.4271C278.394 94.5999 278.282 94.7645 278.158 94.9192C278.046 95.0445 277.898 95.142 277.721 95.0353C277.684 95.0162 277.652 94.9895 277.626 94.9569C277.6 94.9242 277.581 94.8864 277.571 94.8459C277.561 94.8055 277.56 94.7634 277.567 94.7223C277.575 94.6813 277.591 94.6424 277.615 94.6082C277.893 94.0465 278.144 93.4616 278.469 92.9231C279.669 90.9393 280.89 88.9679 282.131 87.0089C282.266 86.7051 282.472 86.4378 282.73 86.2291C282.784 86.1905 282.849 86.1698 282.916 86.1698C282.982 86.1698 283.047 86.1905 283.102 86.2291C283.145 86.2793 283.178 86.3377 283.199 86.4008V86.4008ZM96.5144 126.142C96.6335 125.535 96.8269 124.944 97.09 124.383C97.5542 123.352 98.0184 122.336 98.4826 121.315C98.9469 120.293 99.4343 119.272 99.9171 118.251C100.021 118.045 100.139 117.846 100.27 117.657C100.307 117.6 100.364 117.56 100.429 117.544C100.494 117.528 100.563 117.536 100.623 117.568C100.701 117.598 100.766 117.655 100.805 117.73C100.844 117.805 100.853 117.891 100.832 117.972C100.804 118.067 100.767 118.159 100.72 118.246C100.191 119.425 99.6803 120.614 99.1279 121.779C98.5755 122.944 98.0648 124.063 97.596 125.233C97.4446 125.6 97.2742 125.96 97.0853 126.31C97.0111 126.458 96.8997 126.602 96.7047 126.569C96.5097 126.537 96.5376 126.337 96.5144 126.142V126.142ZM78.9716 94.8913C78.7998 94.8913 78.6142 94.6871 78.6467 94.5478C78.7349 94.1625 78.8323 93.7772 78.9438 93.3966C79.3755 91.9389 79.9697 90.5324 80.5035 89.1118C80.8285 88.2438 81.1627 87.3803 81.4877 86.5122C81.5341 86.3915 81.5666 86.2569 81.6176 86.1362C81.7151 85.9041 81.9008 85.7927 82.0819 85.8484C82.1867 85.8981 82.2691 85.9852 82.3129 86.0926C82.3568 86.2 82.3588 86.3199 82.3186 86.4287C81.7662 87.9513 81.2045 89.4739 80.6567 90.9966C80.2946 91.99 79.9511 92.9927 79.5937 93.9861C79.5056 94.2362 79.4002 94.4797 79.278 94.7149C79.2526 94.7733 79.2091 94.8219 79.1539 94.8537C79.0987 94.8854 79.0348 94.8986 78.9716 94.8913V94.8913ZM65.2726 141.503C65.2086 141.483 65.152 141.445 65.1099 141.393C65.0677 141.341 65.042 141.278 65.0358 141.211C65.0344 140.943 65.13 140.684 65.3051 140.482C65.695 139.869 66.1035 139.261 66.5074 138.653C67.4358 137.26 68.3643 135.821 69.1627 134.34C69.3237 134.05 69.5019 133.769 69.6966 133.5C69.7807 133.402 69.8852 133.322 70.0029 133.268C70.065 133.243 70.133 133.236 70.1989 133.248C70.2648 133.261 70.3257 133.292 70.3743 133.338C70.4276 133.377 70.4633 133.435 70.4737 133.5C70.4842 133.566 70.4685 133.632 70.43 133.686C69.0532 136.182 67.5503 138.607 65.9271 140.951C65.7871 141.133 65.6318 141.302 65.4629 141.457C65.4165 141.494 65.319 141.489 65.2726 141.503V141.503ZM239.4 52.5966C239.196 52.6337 238.996 52.4155 239.061 52.2763C239.192 51.9715 239.347 51.6781 239.526 51.3989C239.911 50.8186 240.329 50.2616 240.728 49.6906C241.656 48.3351 242.617 46.9703 243.564 45.6101C243.783 45.2769 244.064 44.9885 244.391 44.7606C244.447 44.7226 244.516 44.7081 244.583 44.7203C244.649 44.7324 244.709 44.7702 244.748 44.8256C244.783 44.8598 244.807 44.9037 244.817 44.9517C244.827 44.9997 244.822 45.0495 244.804 45.0948C244.759 45.22 244.698 45.3386 244.623 45.4476C243.973 46.2089 243.495 47.0863 242.928 47.8987C241.958 49.2913 240.993 50.684 240.018 52.0488C239.899 52.2168 239.764 52.3723 239.614 52.513C239.549 52.5552 239.476 52.5837 239.4 52.5966V52.5966ZM201.534 58.6128C201.321 58.6407 201.102 58.4132 201.181 58.2368C201.404 57.7726 201.613 57.2666 201.882 56.8117C202.871 55.1637 203.883 53.5343 204.886 51.8956C205.095 51.5567 205.294 51.2132 205.512 50.8836C205.593 50.7789 205.69 50.688 205.8 50.6144C205.926 50.5122 206.144 50.6144 206.195 50.7815C206.218 50.8784 206.22 50.979 206.201 51.0767C206.181 51.1744 206.141 51.2669 206.083 51.3478C205.573 52.2391 205.071 53.1351 204.538 54.0124C203.665 55.4608 202.774 56.8906 201.892 58.3296C201.799 58.4782 201.715 58.6128 201.534 58.6128V58.6128ZM75.0118 194.201C74.8262 194.201 74.6312 193.988 74.6683 193.858C74.7208 193.668 74.7924 193.485 74.8819 193.31C75.3739 192.381 75.8892 191.453 76.372 190.497C76.9894 189.285 77.63 188.092 78.3496 186.936C78.4672 186.697 78.6487 186.494 78.8741 186.351C78.9315 186.319 78.9973 186.303 79.0633 186.307C79.1293 186.311 79.1926 186.335 79.2455 186.375C79.3004 186.414 79.3389 186.472 79.3534 186.538C79.368 186.604 79.3577 186.673 79.3244 186.732C79.2223 186.936 79.0737 187.122 78.9623 187.322C78.4424 188.287 77.9271 189.251 77.4165 190.214C76.8223 191.328 76.2281 192.437 75.6432 193.551C75.5521 193.766 75.4104 193.956 75.23 194.104C75.1623 194.146 75.0889 194.179 75.0118 194.201V194.201ZM281.546 215.179C281.561 215.244 281.561 215.311 281.548 215.376C281.534 215.441 281.507 215.502 281.468 215.555C281.17 216.145 280.883 216.744 280.572 217.324C279.643 219.106 278.585 220.829 277.48 222.514C277.442 222.587 277.388 222.65 277.322 222.7C277.256 222.749 277.18 222.782 277.099 222.797C277.034 222.811 276.966 222.807 276.904 222.784C276.841 222.761 276.787 222.72 276.746 222.667C276.698 222.583 276.685 222.483 276.709 222.388C276.806 222.179 276.918 221.978 277.044 221.785C278.32 219.738 279.518 217.644 280.674 215.532C280.77 215.361 280.89 215.204 281.031 215.068C281.152 214.952 281.523 215.045 281.546 215.179ZM252.691 101.85C252.592 101.838 252.502 101.79 252.438 101.714C252.374 101.638 252.342 101.54 252.347 101.441C252.385 101.277 252.451 101.12 252.542 100.977C252.974 100.346 253.401 99.7146 253.856 99.1204C254.854 97.7973 255.871 96.4883 256.873 95.1699C257.009 94.9425 257.193 94.7476 257.412 94.5989C257.467 94.5616 257.531 94.5416 257.598 94.5416C257.664 94.5416 257.728 94.5616 257.783 94.5989C257.839 94.6376 257.878 94.6959 257.893 94.7621C257.907 94.8284 257.896 94.8978 257.862 94.9563C257.737 95.1907 257.592 95.4142 257.43 95.6248C256.595 96.7807 255.769 97.9459 254.914 99.0786C254.278 99.9281 253.582 100.731 253.016 101.632C252.988 101.695 252.942 101.749 252.885 101.788C252.827 101.826 252.76 101.848 252.691 101.85ZM262.866 18.1238C262.881 18.3367 262.822 18.5482 262.699 18.7227C261.641 20.9045 260.541 23.0631 259.278 25.1335C259.173 25.3813 258.977 25.5792 258.73 25.6859C258.684 25.6973 258.635 25.6987 258.588 25.6898C258.541 25.681 258.496 25.6623 258.456 25.6349C258.419 25.6049 258.39 25.5665 258.37 25.5229C258.351 25.4793 258.342 25.4318 258.345 25.3842C258.358 25.2532 258.4 25.1267 258.466 25.0128C258.749 24.4836 259.037 23.959 259.334 23.4438C260.234 21.8933 261.107 20.3289 261.901 18.718C262.004 18.4375 262.162 18.1803 262.365 17.9614C262.472 17.8685 262.597 17.8128 262.718 17.9103C262.781 17.9706 262.832 18.0433 262.866 18.1238V18.1238ZM112.033 29.7293C112.008 29.8128 111.979 29.895 111.945 29.9753L109.675 34.9471C109.457 35.4113 109.243 35.9126 109.02 36.3908C108.924 36.7106 108.725 36.9897 108.454 37.1846C108.411 37.2042 108.364 37.2144 108.317 37.2144C108.27 37.2144 108.223 37.2042 108.18 37.1846C108.138 37.1614 108.102 37.1288 108.074 37.0894C108.047 37.0499 108.029 37.0046 108.022 36.9571C108.043 36.76 108.09 36.5664 108.162 36.3815C108.315 35.9823 108.477 35.583 108.663 35.1931C109.455 33.5188 110.254 31.8445 111.058 30.1703C111.143 29.8851 111.303 29.6284 111.522 29.4275C111.607 29.3835 111.705 29.3735 111.796 29.3997C111.866 29.4217 111.927 29.4657 111.97 29.5251C112.012 29.5845 112.035 29.6561 112.033 29.7293V29.7293ZM206.473 78.0542C206.409 78.0347 206.354 77.9945 206.315 77.9399C206.276 77.8852 206.257 77.8193 206.26 77.7525C206.272 77.5907 206.317 77.433 206.39 77.2883C206.721 76.6693 207.061 76.0643 207.411 75.4732C208.261 74.0155 209.119 72.5672 209.974 71.1142C210.047 70.9248 210.176 70.7627 210.345 70.6499C210.401 70.6125 210.467 70.5953 210.534 70.6012C210.601 70.6072 210.664 70.6358 210.712 70.6824C210.743 70.7178 210.767 70.759 210.782 70.8036C210.797 70.8482 210.803 70.8954 210.8 70.9424C210.747 71.1321 210.673 71.3158 210.582 71.4902C209.746 73.0685 208.897 74.6422 207.936 76.1324C207.615 76.6337 207.314 77.149 207.007 77.6457C206.912 77.7804 206.8 77.9021 206.673 78.0078C206.617 78.0635 206.534 78.0449 206.473 78.0542V78.0542ZM96.714 96.0147C96.7375 96.1927 96.698 96.3734 96.6026 96.5254C95.5627 98.2151 94.6436 99.9745 93.5387 101.632C93.2648 102.045 93.0142 102.477 92.7542 102.894C92.7196 102.97 92.6588 103.031 92.583 103.066C92.5072 103.101 92.4213 103.108 92.341 103.085C92.2962 103.064 92.2559 103.034 92.2224 102.998C92.189 102.961 92.1632 102.918 92.1463 102.872C92.1295 102.825 92.1221 102.776 92.1244 102.726C92.1268 102.677 92.1389 102.628 92.16 102.583C92.2873 102.243 92.4426 101.914 92.6242 101.599C93.418 100.299 94.2258 99.0136 95.0289 97.7231C95.3585 97.1892 95.6881 96.6554 96.0223 96.1215C96.0704 96.0352 96.1297 95.9556 96.1987 95.8848C96.2427 95.8341 96.3032 95.8007 96.3695 95.7905C96.4358 95.7803 96.5036 95.7939 96.5608 95.8291C96.6231 95.8807 96.6751 95.9437 96.714 96.0147ZM96.5144 194.744C96.4627 194.684 96.4175 194.619 96.3797 194.549C96.3362 194.46 96.3136 194.361 96.3136 194.262C96.3136 194.162 96.3362 194.063 96.3797 193.974C96.5365 193.646 96.71 193.327 96.8997 193.017C97.5588 191.981 98.2242 190.953 98.8958 189.935C99.2661 189.346 99.6009 188.735 99.8985 188.106C100.002 187.9 100.117 187.701 100.242 187.507C100.27 187.466 100.312 187.437 100.36 187.426C100.408 187.414 100.459 187.422 100.502 187.447C100.561 187.474 100.611 187.518 100.646 187.572C100.687 187.663 100.708 187.762 100.708 187.862C100.708 187.962 100.687 188.061 100.646 188.152C100.466 188.722 100.215 189.266 99.8985 189.773C99.2486 190.766 98.5987 191.764 97.9627 192.767C97.5564 193.323 97.1962 193.911 96.8857 194.526C96.8486 194.67 96.7372 194.74 96.5144 194.744ZM84.2915 27.8724C84.2811 27.9489 84.2608 28.0238 84.2312 28.0952C83.2331 30.1888 82.3743 32.3335 81.5387 34.5014C81.4789 34.6604 81.4092 34.8154 81.3298 34.9656C81.2463 35.1188 81.1256 35.2349 80.9306 35.1374C80.8531 35.1061 80.7875 35.0511 80.7433 34.9802C80.6991 34.9093 80.6785 34.8261 80.6846 34.7428C80.7149 34.546 80.7663 34.353 80.8378 34.1672C81.0792 33.5126 81.302 32.8534 81.5759 32.2128C82.1329 30.9037 82.7132 29.5993 83.2888 28.2995C83.3862 28.0142 83.5736 27.7682 83.8227 27.5985C83.8713 27.5799 83.9236 27.5724 83.9755 27.5766C84.0275 27.5809 84.0778 27.5967 84.1228 27.623C84.1678 27.6493 84.2063 27.6854 84.2355 27.7285C84.2647 27.7717 84.2839 27.8208 84.2915 27.8724V27.8724ZM267.815 153.118C267.68 153.118 267.499 152.886 267.532 152.761C267.565 152.634 267.609 152.509 267.662 152.389C267.942 151.788 268.286 151.218 268.688 150.69C269.644 149.386 270.6 148.081 271.436 146.689C271.518 146.547 271.621 146.418 271.742 146.308C271.791 146.262 271.854 146.234 271.921 146.229C271.987 146.224 272.054 146.242 272.109 146.28C272.168 146.313 272.213 146.367 272.235 146.431C272.257 146.496 272.255 146.566 272.23 146.628C272.099 146.936 271.943 147.232 271.765 147.515C271.222 148.378 270.661 149.242 270.094 150.091C269.468 151.02 268.827 151.948 268.191 152.877C268.154 152.945 268.1 153.003 268.034 153.046C267.968 153.088 267.893 153.113 267.815 153.118V153.118ZM173.101 69.3919C173.118 69.6036 173.058 69.8143 172.934 69.9861C172.469 70.7985 172.042 71.6155 171.583 72.4186C171.003 73.4213 170.408 74.4147 169.819 75.4128C169.724 75.5869 169.615 75.753 169.494 75.9095C169.364 76.0674 169.206 76.1973 168.979 76.072C168.937 76.0453 168.901 76.0104 168.873 75.9695C168.845 75.9286 168.826 75.8824 168.816 75.8339C168.807 75.7853 168.807 75.7353 168.818 75.6868C168.828 75.6384 168.848 75.5926 168.876 75.5521C169.273 74.8217 169.673 74.0975 170.079 73.3795C170.719 72.2561 171.379 71.1467 172.019 70.0233C172.164 69.7263 172.361 69.4575 172.599 69.2294C172.706 69.1412 172.836 69.0809 172.957 69.1784C173.015 69.2425 173.063 69.3144 173.101 69.3919V69.3919ZM55.0459 77.1722C55.1202 76.8658 55.1944 76.4387 55.3291 76.0349C55.8397 74.5308 56.3596 73.0314 56.8888 71.5366C57.0134 71.2262 57.1689 70.9291 57.353 70.6499C57.3721 70.6129 57.3984 70.5801 57.4303 70.5534C57.4623 70.5267 57.4993 70.5067 57.5391 70.4946C57.5789 70.4825 57.6208 70.4785 57.6622 70.4829C57.7036 70.4872 57.7437 70.4998 57.7801 70.52C57.8579 70.552 57.9202 70.613 57.954 70.69C57.9878 70.7671 57.9903 70.8542 57.9612 70.9331C57.873 71.1792 57.7569 71.4205 57.6548 71.6666C57.0002 73.2588 56.5499 74.9161 56.03 76.5594C55.9279 76.8705 55.8118 77.1815 55.6911 77.4879C55.6673 77.5678 55.6172 77.6374 55.549 77.6854C55.4808 77.7334 55.3984 77.757 55.3151 77.7525C55.1294 77.7432 55.018 77.5436 55.0459 77.1722V77.1722ZM120.979 80.9556C120.933 80.9518 120.89 80.9381 120.85 80.9154C120.811 80.8927 120.777 80.8616 120.752 80.8243C120.726 80.787 120.709 80.7445 120.701 80.6997C120.694 80.655 120.697 80.6092 120.709 80.5656C120.84 80.1575 120.995 79.7575 121.174 79.3679C121.898 77.9521 122.64 76.5455 123.379 75.1389C123.473 74.9645 123.581 74.7983 123.704 74.6422C123.768 74.5671 123.847 74.5055 123.936 74.4612C124.08 74.3776 124.4 74.5726 124.377 74.7351C124.362 74.8655 124.326 74.9926 124.27 75.1111C123.963 75.7378 123.657 76.3645 123.341 76.9679C122.743 78.1099 122.134 79.2519 121.531 80.3939C121.456 80.5415 121.369 80.6828 121.271 80.8163C121.24 80.8641 121.196 80.9024 121.144 80.927C121.093 80.9516 121.035 80.9615 120.979 80.9556V80.9556ZM112.669 195.246C112.597 195.253 112.525 195.234 112.466 195.193C112.407 195.153 112.363 195.092 112.344 195.023C112.302 194.828 112.335 194.624 112.437 194.452C112.702 193.918 112.952 193.375 113.235 192.855C113.895 191.634 114.572 190.422 115.245 189.211C115.323 189.066 115.423 188.934 115.543 188.821C115.583 188.797 115.627 188.781 115.674 188.776C115.72 188.77 115.767 188.774 115.812 188.788C115.878 188.802 115.937 188.839 115.978 188.893C116.019 188.946 116.039 189.013 116.035 189.081C115.992 189.272 115.924 189.456 115.83 189.629C114.948 191.334 114.063 193.036 113.175 194.735C113.099 194.881 113.006 195.016 112.897 195.139C112.828 195.188 112.751 195.224 112.669 195.246V195.246Z" fill="black"/>
<path d="M154.356 104.816C154.357 104.883 154.336 104.948 154.295 105.001C154.255 105.054 154.198 105.092 154.133 105.109C154.036 105.133 153.935 105.136 153.837 105.117C153.739 105.098 153.647 105.057 153.567 104.997C152.921 104.598 152.262 104.213 151.631 103.786C150.472 102.942 149.576 101.786 149.05 100.453C148.998 100.33 148.963 100.2 148.948 100.067C148.936 100.002 148.947 99.9354 148.978 99.8773C149.009 99.8191 149.059 99.7732 149.12 99.747C149.18 99.7188 149.248 99.7113 149.314 99.7255C149.379 99.7398 149.438 99.775 149.482 99.8259C149.597 99.987 149.695 100.16 149.774 100.341C150.425 101.772 151.523 102.953 152.903 103.707C153.307 103.934 153.697 104.171 154.091 104.431C154.166 104.466 154.229 104.52 154.276 104.588C154.322 104.656 154.35 104.734 154.356 104.816V104.816Z" fill="#090707"/>
<path d="M59.2007 205.667C59.1729 205.728 59.1218 205.881 59.0476 206.025C58.3652 207.306 57.7988 208.647 57.0329 209.892C56.8286 210.226 56.6754 210.597 56.4851 210.945C56.3919 211.112 56.2797 211.268 56.1508 211.41C56.1159 211.441 56.0746 211.464 56.0296 211.478C55.9847 211.492 55.9374 211.495 55.8909 211.488C55.8263 211.472 55.7692 211.434 55.7288 211.381C55.6884 211.328 55.667 211.263 55.6681 211.196C55.6572 211.098 55.67 211 55.7052 210.908C55.8414 210.502 56.0106 210.108 56.2112 209.729C56.8379 208.68 57.3532 207.57 57.9242 206.48C58.1126 206.131 58.3219 205.795 58.5508 205.472C58.6378 205.377 58.7483 205.307 58.8712 205.268C59.0151 205.203 59.2286 205.398 59.2007 205.667V205.667ZM130.049 40.7125C130.017 40.8504 129.974 40.9855 129.92 41.1163C129.673 41.6223 129.423 42.1283 129.154 42.6204C128.689 43.4328 128.225 44.2312 127.761 45.0343C127.587 45.3173 127.475 45.6336 127.431 45.9628C127.413 46.0793 127.358 46.1871 127.275 46.2705C127.191 46.3539 127.084 46.4087 126.967 46.427C126.888 46.4587 126.8 46.4651 126.717 46.4451C126.634 46.4252 126.559 46.3799 126.503 46.3156C126.464 46.2615 126.441 46.1978 126.436 46.1315C126.431 46.0651 126.445 45.9987 126.475 45.9396C126.554 45.7585 126.633 45.5728 126.726 45.4011C127.481 43.962 128.239 42.526 129 41.0931C129.139 40.8627 129.294 40.6424 129.465 40.4339C129.501 40.3784 129.555 40.3368 129.619 40.3157C129.682 40.2947 129.75 40.2954 129.813 40.3179C129.984 40.4061 130.022 40.5036 130.049 40.7125V40.7125ZM172.892 39.9651C172.943 40.2158 172.391 40.3968 172.316 40.5825C171.184 43.3074 169.995 46.0045 168.603 48.6134C168.477 48.8455 168.357 49.0777 168.217 49.3098C168.17 49.3788 168.103 49.432 168.026 49.4626C167.948 49.4933 167.863 49.4998 167.781 49.4815C167.637 49.4815 167.521 49.3701 167.544 49.2262C167.576 49.0633 167.634 48.9066 167.716 48.762C168.329 47.4761 168.955 46.1949 169.573 44.9043C170.227 43.5117 170.854 42.0633 171.495 40.6475C171.62 40.3763 171.765 40.1141 171.926 39.863C171.944 39.8346 171.968 39.81 171.995 39.7907C172.023 39.7714 172.054 39.7576 172.086 39.7503C172.119 39.743 172.153 39.7422 172.186 39.748C172.219 39.7538 172.251 39.766 172.279 39.784C172.354 39.8305 172.869 39.9233 172.901 39.9651M139.886 18.5879C139.861 18.6715 139.832 18.7536 139.798 18.8339L137.528 23.8057C137.31 24.2699 137.096 24.7713 136.873 25.2494C136.777 25.5693 136.578 25.8484 136.307 26.0432C136.264 26.0629 136.217 26.073 136.17 26.073C136.123 26.073 136.076 26.0629 136.033 26.0432C135.991 26.0201 135.955 25.9875 135.928 25.948C135.9 25.9086 135.882 25.8633 135.875 25.8158C135.896 25.6186 135.943 25.4251 136.015 25.2401C136.168 24.8409 136.33 24.4417 136.516 24.0517C137.308 22.3775 138.107 20.7032 138.911 19.0289C138.996 18.7438 139.156 18.487 139.376 18.2862C139.46 18.2421 139.558 18.2322 139.649 18.2583C139.719 18.2803 139.78 18.3243 139.823 18.3838C139.865 18.4432 139.888 18.5148 139.886 18.5879V18.5879ZM157.902 29.5713C157.87 29.7092 157.827 29.8443 157.773 29.9751C157.526 30.4811 157.276 30.9871 157.007 31.4792C156.542 32.2916 156.078 33.09 155.614 33.8931C155.44 34.1761 155.328 34.4924 155.284 34.8216C155.266 34.9381 155.211 35.0459 155.128 35.1293C155.044 35.2127 154.937 35.2675 154.82 35.2858C154.741 35.3175 154.653 35.3239 154.57 35.3039C154.487 35.284 154.412 35.2387 154.356 35.1744C154.317 35.1203 154.294 35.0566 154.289 34.9903C154.284 34.9239 154.298 34.8575 154.328 34.7984C154.407 34.6173 154.486 34.4316 154.579 34.2599C155.334 32.8208 156.092 31.3848 156.853 29.9519C156.992 29.7215 157.147 29.5012 157.318 29.2927C157.354 29.2372 157.408 29.1956 157.472 29.1745C157.535 29.1535 157.603 29.1542 157.666 29.1767C157.837 29.2649 157.875 29.3624 157.902 29.5713V29.5713ZM243.114 168.46C243.109 168.526 243.093 168.59 243.068 168.651C242.046 170.247 241.341 172.007 240.468 173.678C240.381 173.855 240.277 174.023 240.157 174.179C240.106 174.251 240.028 174.3 239.941 174.314C239.854 174.329 239.765 174.309 239.693 174.258C239.635 174.224 239.591 174.172 239.569 174.109C239.546 174.046 239.545 173.978 239.567 173.915C239.674 173.566 239.801 173.223 239.948 172.889C240.501 171.761 241.067 170.633 241.643 169.514C241.834 169.166 242.048 168.831 242.283 168.511C242.334 168.428 242.402 168.356 242.482 168.299C242.561 168.243 242.652 168.203 242.747 168.182C242.933 168.158 243.147 168.321 243.114 168.46V168.46ZM88.9942 55.5906C88.8595 55.6185 88.6274 55.4328 88.6414 55.3028C88.6549 55.1732 88.6829 55.0455 88.7249 54.9221C88.8688 54.5136 89.0035 54.1051 89.1891 53.7105C89.6889 52.4481 90.2864 51.2266 90.9764 50.0572C91.1252 49.8386 91.293 49.6336 91.4777 49.4444C91.506 49.4028 91.5434 49.3683 91.5871 49.3434C91.6308 49.3185 91.6796 49.3039 91.7297 49.3008C91.7799 49.2976 91.8301 49.306 91.8766 49.3253C91.923 49.3445 91.9644 49.3742 91.9977 49.4119C92.031 49.4407 92.0578 49.4763 92.0762 49.5163C92.0945 49.5564 92.104 49.5999 92.104 49.644C92.104 49.6881 92.0945 49.7316 92.0762 49.7717C92.0578 49.8117 92.031 49.8473 91.9977 49.8761C91.5471 50.4499 91.1827 51.0864 90.916 51.7655C90.5725 52.485 90.2754 53.2231 89.9551 53.9473C89.7369 54.4347 89.5187 54.9129 89.2866 55.391C89.2594 55.4468 89.2181 55.4946 89.1669 55.5296C89.1156 55.5646 89.0561 55.5856 88.9942 55.5906V55.5906ZM122.831 168.688C122.789 168.813 122.752 168.934 122.706 169.054C121.943 170.855 120.985 172.568 119.851 174.161C119.799 174.245 119.739 174.323 119.67 174.393C119.615 174.461 119.536 174.505 119.45 174.516C119.363 174.527 119.276 174.505 119.205 174.453C119.169 174.428 119.139 174.396 119.115 174.359C119.092 174.322 119.076 174.281 119.068 174.238C119.061 174.195 119.062 174.15 119.072 174.108C119.082 174.065 119.101 174.025 119.126 173.989C119.286 173.589 119.483 173.205 119.716 172.842C120.537 171.672 121.248 170.429 121.842 169.129C121.961 168.893 122.099 168.668 122.255 168.456C122.298 168.404 122.359 168.37 122.426 168.363C122.493 168.357 122.56 168.376 122.613 168.418C122.697 168.498 122.77 168.589 122.831 168.688V168.688ZM149.171 70.933C149.143 71.0026 149.096 71.1604 149.027 71.3043C148.395 72.6181 147.722 73.9132 146.993 75.1806C146.847 75.4413 146.649 75.6702 146.413 75.8537C146.382 75.8843 146.345 75.9082 146.304 75.9237C146.263 75.9393 146.22 75.9462 146.176 75.944C146.132 75.9418 146.09 75.9306 146.051 75.911C146.011 75.8915 145.977 75.8641 145.949 75.8305C145.883 75.7756 145.836 75.7009 145.815 75.6174C145.794 75.5339 145.8 75.4459 145.833 75.3662C145.846 75.3362 145.863 75.3081 145.884 75.2827C146.701 74.4564 147.04 73.3562 147.574 72.372C147.829 71.9078 148.038 71.4436 148.298 70.9515C148.356 70.8333 148.426 70.7212 148.507 70.6173C148.527 70.5812 148.555 70.5496 148.588 70.5244C148.621 70.4992 148.659 70.4808 148.699 70.4704C148.739 70.4601 148.781 70.4578 148.822 70.4639C148.863 70.47 148.903 70.4843 148.938 70.5059C149.013 70.5487 149.074 70.6112 149.115 70.6866C149.156 70.762 149.175 70.8473 149.171 70.933V70.933ZM239.865 145.783C239.796 145.785 239.73 145.762 239.676 145.72C239.623 145.678 239.586 145.618 239.572 145.551C239.535 145.354 239.568 145.151 239.665 144.976C239.904 144.428 240.197 143.906 240.538 143.416C241.002 142.738 241.466 142.056 241.93 141.373C242.09 141.12 242.298 140.9 242.543 140.728C242.577 140.703 242.615 140.685 242.656 140.676C242.696 140.667 242.739 140.666 242.78 140.674C242.821 140.682 242.86 140.698 242.894 140.722C242.928 140.745 242.957 140.776 242.979 140.812C243.028 140.858 243.057 140.921 243.061 140.988C243.066 141.055 243.045 141.121 243.003 141.174C242.402 141.966 241.847 142.792 241.341 143.648C240.95 144.223 240.596 144.823 240.282 145.444C240.252 145.534 240.196 145.614 240.122 145.674C240.048 145.734 239.959 145.772 239.865 145.783V145.783ZM255.458 197.079C255.56 197.079 255.75 197.283 255.69 197.418C255.629 197.567 255.551 197.709 255.458 197.841C254.942 198.565 254.413 199.28 253.967 200.055C253.644 200.59 253.36 201.149 253.118 201.726C253.076 201.85 253.018 201.969 252.946 202.079C252.898 202.147 252.828 202.196 252.747 202.218C252.666 202.239 252.581 202.231 252.505 202.195C252.445 202.167 252.395 202.12 252.364 202.062C252.333 202.003 252.322 201.935 252.333 201.87C252.386 201.409 252.531 200.964 252.761 200.561C253.327 199.517 253.981 198.523 254.715 197.59C254.795 197.457 254.903 197.342 255.031 197.254C255.159 197.166 255.304 197.106 255.458 197.079V197.079ZM127.84 93.4382C127.854 93.6168 127.811 93.7953 127.719 93.9488C127.018 95.2161 126.326 96.4881 125.63 97.7601C125.548 97.9379 125.443 98.1048 125.319 98.2568C125.27 98.3301 125.195 98.3825 125.109 98.4039C125.024 98.4254 124.933 98.4143 124.855 98.3728C124.78 98.3365 124.72 98.2741 124.688 98.1972C124.655 98.1203 124.652 98.0342 124.678 97.955C124.747 97.7346 124.837 97.5216 124.948 97.3191C125.452 96.3906 125.967 95.4715 126.494 94.5616C126.689 94.2181 126.897 93.8838 127.116 93.5543C127.192 93.4466 127.29 93.3564 127.403 93.2896C127.444 93.2657 127.488 93.2501 127.534 93.2437C127.581 93.2373 127.628 93.2403 127.673 93.2525C127.766 93.2804 127.803 93.3918 127.84 93.4382V93.4382ZM196.971 27.2131C196.929 27.3198 196.906 27.4173 196.864 27.5055C196.117 28.9399 195.374 30.3744 194.617 31.8042C194.515 31.9991 194.399 32.2405 194.102 32.1709C193.898 32.1245 193.838 31.8506 193.981 31.4838C194.154 31.0211 194.352 30.5685 194.576 30.1283C194.984 29.3345 195.416 28.5546 195.852 27.7794C196.019 27.4961 196.212 27.2289 196.428 26.9809C196.479 26.9383 196.544 26.915 196.611 26.915C196.678 26.915 196.743 26.9383 196.795 26.9809C196.864 27.0496 196.923 27.1278 196.971 27.2131ZM268.836 221.808C268.844 221.892 268.834 221.976 268.808 222.056C268.782 222.136 268.739 222.21 268.683 222.272C268.219 222.95 267.731 223.628 267.249 224.296C266.784 224.854 266.373 225.454 266.019 226.088C266.004 226.134 265.981 226.177 265.949 226.213C265.917 226.249 265.878 226.278 265.834 226.298C265.79 226.317 265.742 226.327 265.694 226.327C265.646 226.327 265.598 226.317 265.554 226.297C265.502 226.271 265.456 226.234 265.418 226.189C265.381 226.144 265.353 226.092 265.336 226.036C265.32 225.98 265.315 225.921 265.322 225.863C265.329 225.805 265.348 225.749 265.378 225.698C265.712 225.169 266.06 224.644 266.422 224.129C266.989 223.317 267.574 222.514 268.149 221.711C268.187 221.655 268.232 221.605 268.284 221.562C268.329 221.515 268.389 221.484 268.453 221.473C268.518 221.463 268.584 221.475 268.641 221.506C268.696 221.536 268.743 221.58 268.777 221.632C268.811 221.685 268.832 221.745 268.836 221.808V221.808ZM185.463 24.0517C185.462 24.1249 185.448 24.1972 185.421 24.2653C185.261 24.6628 185.062 25.0437 184.827 25.4026C184.131 26.331 183.537 27.3105 182.928 28.29C182.875 28.3715 182.816 28.4491 182.752 28.5221C182.655 28.6382 182.408 28.5639 182.353 28.4107C182.31 28.2853 182.299 28.1514 182.319 28.0206C182.339 27.8897 182.391 27.7656 182.469 27.6587C182.863 27.0181 183.239 26.3589 183.643 25.7183C183.991 25.1566 184.363 24.6134 184.725 24.0657C184.806 23.9202 184.936 23.8084 185.092 23.75C185.136 23.7411 185.183 23.7422 185.227 23.7533C185.271 23.7643 185.313 23.7849 185.348 23.8137C185.384 23.8425 185.412 23.8788 185.432 23.9199C185.452 23.9611 185.463 24.0061 185.463 24.0517V24.0517ZM114.248 137.335C114.244 137.41 114.226 137.484 114.196 137.553C113.472 138.815 112.742 140.075 112.005 141.331C111.988 141.358 111.968 141.383 111.945 141.406C111.907 141.461 111.852 141.502 111.788 141.524C111.725 141.545 111.656 141.546 111.592 141.526C111.512 141.502 111.442 141.451 111.394 141.382C111.346 141.313 111.323 141.23 111.328 141.146C111.338 141.015 111.373 140.888 111.43 140.77C111.602 140.412 111.764 140.046 111.968 139.707C112.432 138.973 112.897 138.249 113.361 137.525C113.475 137.321 113.65 137.159 113.862 137.061C113.906 137.052 113.95 137.052 113.994 137.062C114.037 137.071 114.078 137.089 114.114 137.114C114.15 137.14 114.181 137.173 114.203 137.211C114.226 137.249 114.241 137.291 114.248 137.335V137.335ZM243.899 28.6707C243.877 28.7639 243.841 28.8531 243.792 28.9353C243.527 29.3113 243.249 29.678 242.979 30.0541C242.422 30.8293 241.87 31.6092 241.313 32.3751C241.237 32.4821 241.143 32.5748 241.034 32.649C240.98 32.6874 240.914 32.7043 240.848 32.6966C240.782 32.6889 240.721 32.6571 240.677 32.6073C240.645 32.5712 240.621 32.5292 240.606 32.4838C240.591 32.4384 240.585 32.3904 240.589 32.3426C240.633 32.1515 240.71 31.9694 240.816 31.8042C241.536 30.7829 242.269 29.7662 243.007 28.7543C243.129 28.5551 243.316 28.4042 243.537 28.3272C243.584 28.3198 243.633 28.3235 243.679 28.3379C243.725 28.3523 243.767 28.377 243.802 28.4102C243.837 28.4433 243.864 28.484 243.88 28.5292C243.897 28.5744 243.903 28.6228 243.899 28.6707V28.6707ZM278.084 185.636C278.039 185.637 277.996 185.627 277.955 185.61C277.915 185.592 277.879 185.565 277.849 185.532C277.82 185.5 277.798 185.461 277.785 185.419C277.771 185.376 277.767 185.332 277.773 185.288C277.929 184.887 278.165 184.521 278.464 184.211C279.114 183.459 279.671 182.642 280.265 181.853C280.364 181.721 280.474 181.598 280.595 181.486C280.632 181.453 280.68 181.434 280.73 181.434C280.779 181.434 280.827 181.453 280.864 181.486C280.938 181.55 280.991 181.634 281.017 181.728C281.024 181.86 281.003 181.993 280.957 182.117C280.911 182.242 280.84 182.355 280.748 182.452C280.173 183.255 279.588 184.058 278.989 184.842C278.776 185.096 278.543 185.332 278.292 185.548C278.228 185.589 278.158 185.619 278.084 185.636V185.636ZM184.567 55.8181C184.502 55.8083 184.442 55.7783 184.396 55.7325C184.349 55.6866 184.318 55.6273 184.307 55.5628C184.292 55.3653 184.327 55.1673 184.409 54.9871C184.666 54.3054 184.969 53.6416 185.314 53.0003C185.482 52.6428 185.658 52.2854 185.848 51.9372C185.922 51.791 186.019 51.6577 186.136 51.5426C186.185 51.4957 186.249 51.4668 186.316 51.4609C186.384 51.455 186.451 51.4724 186.508 51.5102C186.565 51.5422 186.609 51.5928 186.634 51.6536C186.658 51.7144 186.661 51.7817 186.642 51.8444C186.629 51.9098 186.609 51.9736 186.582 52.0347C186.053 53.172 185.551 54.3326 184.994 55.4514C184.911 55.6324 184.813 55.8134 184.567 55.8181V55.8181ZM288.296 61.6208C288.256 61.7444 288.202 61.8629 288.134 61.9736C287.86 62.3496 287.563 62.7071 287.284 63.0784C286.932 63.5197 286.629 63.9975 286.379 64.5036C286.309 64.6533 286.219 64.7923 286.11 64.9167C286.063 64.9648 286.001 64.9955 285.935 65.0039C285.868 65.0123 285.8 64.998 285.743 64.9632C285.679 64.9437 285.624 64.9013 285.589 64.8439C285.554 64.7866 285.541 64.7183 285.553 64.6521C285.615 64.3602 285.714 64.0778 285.85 63.8119C286.384 62.9728 286.996 62.1863 287.679 61.463C287.719 61.4103 287.77 61.367 287.829 61.3357C287.887 61.3045 287.952 61.2862 288.018 61.2819C288.097 61.2953 288.169 61.337 288.22 61.3993C288.272 61.4615 288.299 61.5402 288.296 61.6208V61.6208ZM251.131 66.4022C251.089 66.5766 251.033 66.7473 250.964 66.9129C250.551 67.8413 250.036 68.6769 249.711 69.6146C249.688 69.695 249.647 69.769 249.591 69.8303C249.534 69.8917 249.464 69.9387 249.386 69.9674C249.292 69.9975 249.19 69.9892 249.102 69.9442C249.033 69.9024 248.949 69.7771 248.968 69.7074C249.038 69.3899 249.136 69.0792 249.26 68.779C249.59 68.0177 249.943 67.2703 250.291 66.5229C250.364 66.3743 250.451 66.2329 250.551 66.1005C250.583 66.0434 250.634 65.9984 250.694 65.9725C250.754 65.9465 250.821 65.9409 250.885 65.9566C251.071 66.0123 251.103 66.1794 251.131 66.4022V66.4022ZM167.126 55.4978C167.111 55.609 167.083 55.718 167.043 55.8227C166.612 56.6797 166.232 57.5618 165.906 58.4641C165.877 58.5252 165.84 58.5816 165.794 58.6312C165.756 58.6853 165.702 58.7255 165.639 58.7457C165.576 58.7658 165.508 58.7647 165.446 58.7426C165.382 58.7221 165.326 58.6843 165.282 58.6335C165.239 58.5827 165.21 58.5208 165.2 58.4548C165.188 58.3246 165.204 58.1933 165.246 58.0695C165.592 57.1033 166.025 56.1709 166.542 55.2842C166.554 55.2537 166.573 55.2259 166.596 55.2026C166.62 55.1792 166.648 55.1608 166.678 55.1482C166.709 55.1357 166.742 55.1294 166.775 55.1296C166.808 55.1299 166.841 55.1367 166.871 55.1496C167.006 55.1914 167.075 55.3074 167.126 55.4978V55.4978ZM81.2882 153.703C81.3013 153.766 81.301 153.831 81.2874 153.894C81.2738 153.958 81.2472 154.017 81.2093 154.07C80.8472 154.738 80.4851 155.406 80.1137 156.066C80.0437 156.176 79.9439 156.265 79.8259 156.321C79.7807 156.338 79.7322 156.345 79.684 156.341C79.6358 156.337 79.5891 156.322 79.5474 156.298C79.5078 156.271 79.4751 156.235 79.4518 156.193C79.4284 156.151 79.4151 156.104 79.4127 156.056C79.4271 155.926 79.4599 155.797 79.5102 155.676C79.7423 154.985 80.0857 154.338 80.5269 153.758C80.6066 153.654 80.704 153.565 80.8147 153.494C80.859 153.472 80.9074 153.461 80.9567 153.46C81.0059 153.459 81.0548 153.469 81.0999 153.488C81.145 153.508 81.1852 153.538 81.2177 153.575C81.2502 153.612 81.2743 153.656 81.2882 153.703V153.703Z" fill="black"/>
<path d="M178.56 215.922C178.783 216.112 178.938 216.37 179.001 216.656C179.674 218.633 180.394 220.611 180.631 222.69C180.798 223.811 180.765 224.952 180.533 226.061C180.354 226.875 180.001 227.641 179.499 228.307C178.997 228.973 178.356 229.522 177.622 229.918C176.983 230.274 176.319 230.585 175.636 230.847C172.256 232.142 168.867 233.409 165.488 234.7C162.535 235.813 159.475 236.618 156.357 237.1C154.851 237.382 153.308 237.407 151.793 237.174C150.84 237.012 149.919 236.698 149.064 236.246C148.622 236.022 148.236 235.701 147.936 235.308C147.635 234.915 147.427 234.458 147.327 233.973C147.227 233.488 147.238 232.987 147.358 232.507C147.479 232.026 147.707 231.58 148.024 231.199C148.296 230.864 148.598 230.554 148.925 230.271C149.542 229.719 150.183 229.189 150.809 228.646C152.547 227.142 154.041 225.377 155.238 223.415C156.341 221.634 157.653 219.991 159.147 218.522L159.792 217.9C160.451 217.286 161.233 216.82 162.086 216.532C162.94 216.244 163.844 216.14 164.74 216.229C164.87 216.229 165.005 216.256 165.135 216.275C165.315 216.287 165.485 216.361 165.617 216.484C165.748 216.608 165.832 216.774 165.855 216.953C166.034 217.679 166.384 218.352 166.875 218.917C167.365 219.482 167.983 219.922 168.677 220.202C169.118 220.419 169.587 220.575 170.07 220.666C171.638 220.982 173.257 220.954 174.814 220.583C175.815 220.311 176.712 219.747 177.39 218.963C178.041 218.281 178.41 217.379 178.426 216.437C178.431 216.305 178.444 216.173 178.467 216.043C178.491 216.024 178.518 215.996 178.56 215.922Z" fill="#A4F337"/>
<path d="M147.351 236.069C147.267 236.199 147.128 236.185 147.003 236.199C145.22 236.384 143.437 236.579 141.65 236.751C138.369 237.025 135.073 237.076 131.786 236.904C129.726 236.884 127.671 236.702 125.639 236.361C124.494 236.157 123.377 235.819 122.311 235.354C121.902 235.197 121.55 234.919 121.301 234.558C121.052 234.196 120.919 233.768 120.918 233.33C120.91 232.759 121.072 232.198 121.382 231.719C122.059 230.56 123.108 229.663 124.358 229.175C124.982 228.945 125.621 228.759 126.271 228.618C128.492 228.122 130.511 226.963 132.059 225.294C132.937 224.366 133.805 223.465 134.673 222.551C136.205 220.931 137.76 219.343 139.413 217.844C139.923 217.367 140.48 216.942 141.075 216.576C141.957 216.034 142.977 215.756 144.013 215.778C144.678 215.815 145.326 215.999 145.912 216.316C146.119 216.432 146.283 216.613 146.376 216.832C146.678 217.342 146.998 217.848 147.304 218.368C147.376 218.5 147.472 218.616 147.588 218.71C147.705 218.804 147.839 218.874 147.982 218.916C150.039 219.543 152.123 219.896 154.263 219.38C155.075 219.193 155.84 218.84 156.51 218.345C156.775 218.17 156.994 217.934 157.149 217.657C157.304 217.38 157.39 217.07 157.401 216.753C157.408 216.586 157.423 216.421 157.447 216.256C157.499 215.792 157.624 215.713 158 215.917C158.264 216.057 158.514 216.222 158.747 216.409C159.434 216.976 159.434 217.161 158.789 217.802C157.145 219.405 155.703 221.202 154.495 223.154C153.27 225.148 151.723 226.925 149.918 228.414C149.2 229.008 148.503 229.627 147.829 230.271C147.342 230.729 146.971 231.296 146.748 231.926C146.524 232.555 146.454 233.229 146.543 233.892C146.582 234.525 146.792 235.137 147.151 235.66C147.244 235.767 147.379 235.883 147.351 236.069V236.069Z" fill="#A4F337"/>
<path d="M254.074 216.154C253.653 215.322 253.115 214.555 252.477 213.875C251.476 212.805 250.351 211.859 249.126 211.057C247.491 209.975 245.769 209.033 243.977 208.239C239.293 206.195 234.429 204.592 229.447 203.448C227.354 202.933 225.228 202.552 223.185 201.833C222.678 201.675 222.162 201.548 221.639 201.452C221.11 201.341 221.096 201.322 221.342 200.807C221.398 200.686 221.458 200.57 221.519 200.45C222.873 197.639 224.069 194.754 225.102 191.81C225.183 191.593 225.236 191.367 225.26 191.137C225.262 191.07 225.24 191.005 225.198 190.952C225.157 190.9 225.098 190.864 225.033 190.85C224.971 190.822 224.902 190.816 224.837 190.832C224.771 190.848 224.713 190.885 224.671 190.938C224.566 191.106 224.478 191.285 224.411 191.472C224.063 192.4 223.724 193.328 223.366 194.257C222.124 197.587 220.591 200.801 218.784 203.862C217.74 205.601 216.483 207.204 215.043 208.634C213.442 210.242 211.493 211.46 209.347 212.194C206.817 213.123 204.15 213.625 201.455 213.68C199.197 213.776 196.934 213.62 194.71 213.215C193.252 212.895 191.799 212.561 190.328 212.287C189.515 212.125 188.722 211.873 187.965 211.535C186.498 210.918 185.133 210.082 183.69 209.404C183.652 209.404 183.639 209.316 183.611 209.27C183.928 209.085 184.281 208.969 184.646 208.931C185.904 208.545 185.834 208.731 185.988 207.232V207.032C185.988 205.769 185.987 204.502 185.936 203.244C185.811 198.723 185.565 194.21 185.282 189.698C185.231 188.9 185.138 188.106 185.096 187.312C184.88 183.193 184.664 179.077 184.451 174.964C184.414 174.268 184.349 173.571 184.284 172.88C184.258 172.648 184.212 172.42 184.145 172.197C184.075 171.961 183.894 171.835 183.717 171.877C183.541 171.919 183.476 172.086 183.471 172.258C183.467 172.429 183.471 172.587 183.504 172.754C183.634 174.746 183.741 176.737 183.908 178.724C184.047 180.381 184.084 182.043 184.145 183.701C184.196 185.028 184.223 186.365 184.353 187.684C184.734 191.592 184.818 195.515 185.045 199.428C185.189 201.884 185.208 204.344 185.282 206.805V207.501C185.292 207.633 185.253 207.765 185.173 207.87C185.092 207.975 184.976 208.047 184.846 208.072C183.988 208.334 183.108 208.52 182.218 208.629C180.268 208.847 178.309 208.959 176.355 209.093C171.902 209.443 167.426 208.865 163.208 207.394C162.99 207.315 162.781 207.218 162.568 207.125C162.458 207.084 162.362 207.011 162.293 206.916C162.224 206.821 162.184 206.708 162.178 206.591C162.178 206.424 162.145 206.262 162.131 206.094C161.983 204.442 161.83 202.785 161.667 201.132C161.491 199.178 161.296 197.228 161.138 195.273C160.966 193.055 160.818 190.831 160.674 188.607C160.53 186.384 160.381 184.095 160.381 181.834C160.381 177.05 160.493 172.265 160.716 167.481C160.829 164.858 161.108 162.246 161.551 159.659C161.907 157.527 162.462 155.434 163.208 153.406C164.388 150.282 166.532 148.179 169.861 147.417C170.576 147.255 171.286 147.092 171.996 146.916C173.72 146.541 175.494 146.456 177.246 146.665C179.298 146.893 181.295 147.47 183.151 148.374C186.879 150.087 190.183 152.603 192.825 155.741C193.406 156.423 193.986 157.11 194.571 157.793C197.87 161.592 200.861 165.648 203.516 169.923C204.955 172.272 206.418 174.611 207.931 176.914C209.268 178.975 210.476 181.118 211.547 183.329C211.95 184.13 212.291 184.96 212.569 185.813C212.593 185.943 212.638 186.068 212.703 186.184C212.773 186.253 212.865 186.295 212.963 186.3C212.996 186.306 213.03 186.305 213.063 186.298C213.095 186.291 213.126 186.277 213.153 186.258C213.181 186.238 213.204 186.213 213.221 186.185C213.239 186.156 213.251 186.124 213.256 186.091C213.285 185.938 213.285 185.78 213.256 185.627C213.174 185.311 213.071 185.001 212.949 184.699C212.338 183.226 211.644 181.789 210.87 180.395C210.772 180.214 210.563 180.047 210.67 179.801C210.73 179.767 210.798 179.748 210.867 179.748C210.936 179.748 211.004 179.767 211.064 179.801C212.09 180.186 213.121 180.553 214.133 180.971C218.227 182.598 221.877 185.17 224.787 188.477C224.856 188.552 224.917 188.631 224.986 188.7C225.26 188.969 225.562 188.942 225.701 188.589C225.902 188.099 226.066 187.594 226.193 187.08C226.575 185.29 226.731 183.459 226.658 181.63C226.541 177.709 226.156 173.801 225.506 169.932C224.875 165.861 224.378 161.776 223.974 157.672C223.812 156.056 223.631 154.422 223.315 152.835C222.705 149.606 221.91 146.414 220.934 143.277C220.505 141.779 219.943 140.324 219.253 138.927L221.779 137.423C223.803 136.281 225.758 135.019 227.632 133.644C228.979 132.614 230.288 131.532 231.523 130.395C233.379 128.663 235.129 126.857 236.968 125.126C238.036 124.078 239.029 122.957 239.939 121.769C241.063 120.326 241.856 118.652 242.26 116.867C242.454 116.194 242.521 115.49 242.459 114.792C242.139 112.158 240.946 109.707 239.071 107.829C236.464 105.162 233.464 102.909 230.176 101.149C227.651 99.817 225.025 98.687 222.322 97.7694C220.301 97.0287 218.218 96.474 216.097 96.1122C214.388 95.8476 212.685 95.5644 210.99 95.2766C208.632 94.8774 206.274 94.4642 203.897 94.2135C203.27 94.1439 202.639 94.1114 202.008 94.065C201.809 94.0337 201.605 94.0679 201.427 94.1625C201.392 94.1838 201.363 94.2126 201.341 94.2468C201.318 94.2811 201.304 94.3199 201.299 94.3604C201.293 94.4009 201.297 94.4421 201.31 94.4809C201.322 94.5198 201.343 94.5553 201.372 94.5849C201.423 94.6267 201.474 94.6963 201.529 94.701C201.97 94.7288 202.035 95.0259 202.059 95.388C202.147 96.279 202.042 97.1787 201.749 98.025C201.457 98.8713 200.984 99.6441 200.364 100.29C200.247 100.406 200.145 100.537 200.063 100.68C200.034 100.741 200.029 100.811 200.05 100.876C200.071 100.94 200.115 100.995 200.174 101.028C200.215 101.053 200.26 101.068 200.307 101.074C200.355 101.079 200.402 101.075 200.448 101.061C200.827 100.851 201.152 100.558 201.4 100.202C202.405 98.9008 202.92 97.2865 202.852 95.6433C202.852 95.388 202.732 95.1188 202.931 94.8217C203.99 94.9563 205.071 95.0677 206.148 95.2348C208.511 95.5969 210.874 95.9683 213.232 96.3629C214.834 96.6321 216.445 96.8874 218.028 97.2542C221.151 98.0376 224.196 99.1083 227.122 100.453C230.529 101.96 233.693 103.968 236.508 106.409C238.1 107.672 239.448 109.215 240.487 110.962C241.135 112.199 241.551 113.545 241.712 114.932C241.758 115.295 241.74 115.664 241.661 116.022C241.355 117.797 240.641 119.477 239.577 120.929C238.629 122.211 237.58 123.414 236.439 124.527C234.549 126.305 232.725 128.171 230.868 129.935C228.124 132.465 225.096 134.668 221.844 136.499C219.68 137.738 217.536 138.997 215.442 140.352C214.857 140.728 214.244 141.062 213.646 141.42C213.455 141.536 213.348 141.768 213.432 141.912C213.486 141.995 213.568 142.057 213.663 142.085C213.758 142.114 213.861 142.109 213.952 142.07C214.302 141.971 214.633 141.814 214.931 141.605C215.748 141.099 216.556 140.57 217.373 140.06C218.817 139.159 218.552 138.918 219.304 140.751C219.351 140.872 219.383 141.002 219.425 141.132C220.433 144.049 221.272 147.022 221.936 150.036C222.229 151.4 222.582 152.761 222.763 154.139C223.153 157.133 223.441 160.146 223.798 163.15C224.002 164.895 224.262 166.641 224.494 168.381C224.773 170.387 225.102 172.388 225.353 174.416C225.636 176.658 225.817 178.915 225.896 181.175C225.981 182.936 225.867 184.7 225.557 186.435C225.533 186.861 225.406 187.276 225.186 187.642C224.968 187.642 224.894 187.465 224.782 187.349C222.618 185.042 220.084 183.11 217.285 181.635C215.144 180.499 212.89 179.591 210.558 178.928C210.396 178.905 210.24 178.848 210.101 178.761C209.962 178.674 209.843 178.558 209.751 178.422C208.358 176.148 206.859 173.961 205.485 171.687C203.691 168.656 201.739 165.723 199.635 162.899C197.505 160.086 195.244 157.384 192.909 154.747C189.855 151.253 185.969 148.585 181.61 146.99C178.922 145.989 176.031 145.653 173.184 146.011C171.707 146.231 170.249 146.561 168.821 147C167.113 147.482 165.595 148.477 164.471 149.85C164.346 149.998 164.258 150.189 164.044 150.221C163.785 149.836 163.506 149.464 163.208 149.107C162.132 147.92 160.879 146.905 159.495 146.099C156.794 144.512 153.762 143.57 150.637 143.346C149.833 143.295 149.061 143.013 148.414 142.534C146.093 140.946 143.772 139.321 141.506 137.632C138.471 135.372 135.792 132.669 133.559 129.615C131.982 127.472 130.771 125.083 129.975 122.545C129.393 120.728 129.341 118.782 129.827 116.937C130.62 113.936 132.152 111.182 134.283 108.925C136.219 106.822 138.22 104.779 140.355 102.89C141.325 102.031 142.24 101.107 143.238 100.276C144.719 99.046 146.246 97.8716 147.755 96.6692C148.168 96.335 148.576 95.9961 148.976 95.6433C149.097 95.5335 149.197 95.4011 149.268 95.2534C149.288 95.1896 149.289 95.1214 149.271 95.0571C149.253 94.9928 149.216 94.9352 149.166 94.8913C149.121 94.8421 149.06 94.8102 148.994 94.8009C148.928 94.7916 148.861 94.8055 148.804 94.8402C148.664 94.9298 148.531 95.0291 148.405 95.1373L146.933 96.3304C145.28 97.6673 143.567 98.9393 141.984 100.355C139.162 102.885 136.414 105.489 133.837 108.279C131.93 110.328 130.452 112.738 129.492 115.368C128.53 117.905 128.497 120.701 129.399 123.26C130.179 125.558 131.288 127.732 132.691 129.712C135.015 132.964 137.835 135.832 141.047 138.212C143.419 139.981 145.814 141.708 148.428 143.388C147.778 143.657 147.249 143.852 146.747 144.089C144.135 145.39 142.05 147.55 140.842 150.207C140.029 151.918 139.429 153.722 139.055 155.578C138.542 158.29 138.213 161.034 138.071 163.79C137.89 166.376 137.755 168.962 137.607 171.552C137.375 175.47 137.287 179.388 137.37 183.311C137.421 185.738 137.505 188.162 137.676 190.585C137.862 193.171 137.895 195.766 138.182 198.342C138.229 198.806 138.21 198.806 137.718 198.876L132.969 199.433C129.901 199.786 126.823 200.101 123.764 200.505C120.075 200.994 116.398 201.564 112.734 202.214C107.112 203.207 101.528 204.386 96.0223 205.867C91.364 207.074 86.7932 208.597 82.3418 210.426C79.3841 211.616 76.5537 213.102 73.8931 214.859C72.5611 215.741 71.3339 216.772 70.2351 217.932C69.4766 218.726 68.8413 219.629 68.3504 220.61C67.8485 221.593 67.6005 222.685 67.6289 223.788C67.6573 224.891 67.9612 225.969 68.5128 226.924C68.9995 227.796 69.6075 228.595 70.3186 229.296C71.1648 230.142 72.0897 230.905 73.0807 231.575C74.6476 232.641 76.3014 233.572 78.0246 234.361C82.0815 236.187 86.2891 237.658 90.6003 238.757C94.4161 239.783 98.2784 240.614 102.169 241.31C104.847 241.774 107.535 242.238 110.237 242.582C111.917 242.795 113.593 243.046 115.278 243.227C117.488 243.482 119.702 243.728 121.916 243.937C123.903 244.123 125.89 244.276 127.882 244.402C130.764 244.592 133.652 244.791 136.539 244.917C139.427 245.042 142.384 245.098 145.308 245.186C152.225 245.386 159.137 245.246 166.049 245.005C170.902 244.838 175.745 244.564 180.579 244.183C184.16 243.905 187.735 243.574 191.303 243.19C194.738 242.825 198.165 242.396 201.585 241.904C205.76 241.304 209.918 240.6 214.059 239.792C219.165 238.789 224.271 237.624 229.257 236.171C233.602 234.951 237.855 233.422 241.981 231.594C244.506 230.484 246.917 229.133 249.181 227.56C250.435 226.682 251.58 225.658 252.593 224.51C253.278 223.739 253.843 222.868 254.269 221.929C254.679 221.015 254.874 220.02 254.84 219.019C254.806 218.018 254.544 217.038 254.074 216.154V216.154ZM166.249 209.618C166.309 209.2 166.356 209.154 166.755 209.237C167.632 209.414 168.51 209.557 169.401 209.674C171.539 209.962 173.701 210.035 175.854 209.892H176.151C176.569 209.892 176.615 209.892 176.736 210.268C176.87 210.609 176.977 210.959 177.056 211.317C177.308 212.415 177.477 213.531 177.562 214.655C177.562 215.249 177.729 215.834 177.711 216.437C177.696 217.173 177.406 217.877 176.898 218.41C176.171 219.244 175.176 219.798 174.085 219.979C172.64 220.229 171.158 220.166 169.74 219.793C169 219.597 168.318 219.224 167.753 218.707C167.084 218.103 166.652 217.28 166.537 216.386C166.362 215.123 166.243 213.853 166.179 212.58C166.138 211.592 166.161 210.602 166.249 209.618V209.618ZM168.677 220.216C169.118 220.433 169.586 220.589 170.07 220.68C171.638 220.996 173.257 220.968 174.814 220.597C175.815 220.325 176.712 219.761 177.39 218.976C178.041 218.295 178.41 217.393 178.425 216.451C178.43 216.32 178.444 216.19 178.467 216.061C178.467 216.029 178.495 216.001 178.537 215.927C178.759 216.117 178.914 216.374 178.978 216.66C179.651 218.638 180.37 220.615 180.607 222.695C180.775 223.815 180.741 224.956 180.51 226.065C180.331 226.88 179.978 227.646 179.475 228.312C178.973 228.977 178.333 229.527 177.599 229.923C176.96 230.279 176.296 230.589 175.612 230.851C172.233 232.146 168.844 233.414 165.464 234.704C162.512 235.818 159.452 236.622 156.333 237.104C154.827 237.386 153.284 237.411 151.77 237.178C150.817 237.016 149.895 236.703 149.041 236.25C148.6 236.024 148.216 235.702 147.917 235.307C147.618 234.912 147.412 234.455 147.314 233.97C147.216 233.484 147.229 232.983 147.352 232.503C147.475 232.024 147.705 231.578 148.024 231.199C148.296 230.864 148.598 230.553 148.924 230.271C149.542 229.718 150.182 229.189 150.809 228.646C152.547 227.141 154.041 225.376 155.238 223.414C156.341 221.633 157.653 219.991 159.146 218.521L159.792 217.899C160.451 217.286 161.233 216.82 162.086 216.532C162.939 216.243 163.844 216.14 164.74 216.228C164.87 216.228 165.005 216.256 165.135 216.275C165.315 216.286 165.485 216.36 165.617 216.484C165.748 216.608 165.832 216.773 165.854 216.952C166.032 217.681 166.381 218.357 166.872 218.925C167.363 219.492 167.981 219.935 168.677 220.216V220.216ZM146.371 216.832C146.673 217.342 146.993 217.848 147.3 218.368C147.371 218.5 147.467 218.616 147.584 218.71C147.7 218.804 147.834 218.874 147.977 218.916C150.034 219.543 152.118 219.896 154.258 219.38C155.07 219.193 155.835 218.84 156.505 218.345C156.77 218.17 156.989 217.934 157.144 217.657C157.299 217.38 157.386 217.07 157.396 216.753C157.396 216.59 157.424 216.423 157.443 216.256C157.494 215.792 157.619 215.713 157.995 215.917C158.259 216.057 158.51 216.222 158.743 216.409C159.43 216.976 159.43 217.161 158.784 217.802C157.141 219.405 155.699 221.202 154.49 223.154C153.266 225.147 151.721 226.925 149.918 228.414C149.2 229.008 148.503 229.627 147.829 230.271C147.342 230.729 146.971 231.296 146.748 231.926C146.524 232.555 146.454 233.229 146.543 233.892C146.582 234.525 146.792 235.137 147.151 235.66C147.244 235.79 147.379 235.906 147.351 236.092C147.323 236.278 147.128 236.208 147.003 236.222C145.22 236.408 143.437 236.603 141.65 236.774C138.369 237.048 135.073 237.099 131.786 236.928C129.726 236.907 127.671 236.725 125.639 236.385C124.494 236.181 123.377 235.842 122.311 235.377C121.902 235.22 121.55 234.942 121.301 234.581C121.052 234.22 120.919 233.792 120.918 233.353C120.91 232.782 121.072 232.222 121.382 231.742C122.059 230.583 123.108 229.687 124.358 229.198C124.982 228.969 125.621 228.782 126.271 228.641C128.492 228.145 130.511 226.986 132.059 225.318C132.937 224.389 133.805 223.489 134.673 222.574C136.205 220.954 137.76 219.366 139.413 217.867C139.923 217.39 140.48 216.966 141.075 216.6C141.957 216.057 142.977 215.78 144.013 215.801C144.678 215.838 145.326 216.022 145.912 216.34C146.114 216.45 146.275 216.623 146.371 216.832V216.832ZM145.034 210.388C144.996 210.194 144.975 209.997 144.974 209.799C144.974 209.386 144.974 209.172 145.522 209.335C147.48 209.955 149.506 210.333 151.557 210.458C152.847 210.564 154.146 210.495 155.419 210.254C155.483 210.24 155.548 210.231 155.614 210.226C155.653 210.214 155.694 210.211 155.734 210.216C155.775 210.222 155.814 210.235 155.848 210.257C155.883 210.278 155.913 210.307 155.936 210.341C155.958 210.375 155.974 210.413 155.981 210.453C156.276 211.507 156.475 212.585 156.575 213.675C156.607 214.436 156.728 215.188 156.751 215.954C156.779 216.404 156.666 216.851 156.427 217.234C156.188 217.616 155.836 217.913 155.419 218.085C154.354 218.62 153.169 218.868 151.979 218.805C150.909 218.776 149.845 218.636 148.804 218.387C148.38 218.291 148.011 218.035 147.773 217.672C147.183 216.79 146.693 215.845 146.311 214.854C145.734 213.413 145.306 211.917 145.034 210.388V210.388ZM162.164 207.715C163.096 208.141 164.06 208.495 165.047 208.773C165.511 208.935 165.539 208.949 165.511 209.483C165.483 210.017 165.409 210.542 165.404 211.071C165.408 212.396 165.489 213.719 165.646 215.035C165.697 215.499 165.678 215.523 165.274 215.472C163.423 215.214 161.541 215.642 159.982 216.674C159.461 215.898 158.692 215.323 157.8 215.044C157.688 215.019 157.588 214.955 157.518 214.863C157.447 214.772 157.411 214.658 157.415 214.543C157.415 214.344 157.387 214.144 157.373 213.944C157.323 212.951 157.167 211.966 156.909 211.006C156.84 210.751 156.788 210.492 156.756 210.231C156.74 210.149 156.757 210.064 156.802 209.994C156.846 209.925 156.916 209.874 156.997 209.855C158.551 209.28 160.059 208.59 161.509 207.789C161.602 207.718 161.711 207.674 161.826 207.661C161.942 207.648 162.058 207.666 162.164 207.715V207.715ZM138.076 183.241C137.997 179.216 138.108 175.201 138.354 171.171C138.452 169.579 138.517 167.987 138.623 166.395C138.823 163.41 139.009 160.425 139.454 157.468C139.763 155.296 140.353 153.174 141.209 151.154C142.016 149.214 143.277 147.497 144.886 146.145C145.887 145.321 147.033 144.692 148.265 144.289C149.159 144.024 150.098 143.95 151.023 144.07C152.017 144.157 153 144.336 153.961 144.604C155.529 145.035 157.048 145.625 158.497 146.364C160.018 147.186 161.397 148.247 162.582 149.506C162.789 149.723 162.972 149.961 163.129 150.217C163.297 150.42 163.393 150.673 163.402 150.937C163.412 151.2 163.334 151.46 163.181 151.674C162.737 152.416 162.403 153.218 162.187 154.056C161.284 156.905 160.662 159.836 160.33 162.806C159.931 166.446 159.801 170.094 159.731 173.748C159.657 177.833 159.504 181.923 159.759 186.008C159.926 188.691 160.033 191.383 160.284 194.062C160.465 195.979 160.586 197.901 160.748 199.823C160.957 202.037 161.212 204.247 161.43 206.461C161.477 206.925 161.491 206.925 161.064 207.144C159.898 207.777 158.698 208.348 157.471 208.852C155.914 209.47 154.253 209.785 152.578 209.78C150.961 209.734 149.352 209.531 147.773 209.177C145.273 208.57 142.843 207.705 140.522 206.596C140.371 206.538 140.24 206.44 140.143 206.311C140.046 206.182 139.987 206.028 139.974 205.867C139.71 203.959 139.366 202.06 139.12 200.152C138.925 198.607 138.772 197.047 138.698 195.487C138.48 191.402 138.159 187.326 138.076 183.241V183.241ZM253.174 222.235C252.477 223.449 251.576 224.533 250.509 225.438C249.233 226.554 247.853 227.544 246.387 228.395C243.54 230.038 240.558 231.436 237.474 232.573C232.843 234.314 228.11 235.768 223.301 236.928C218.014 238.237 212.675 239.3 207.304 240.177C203.929 240.739 200.545 241.25 197.152 241.686C193.926 242.099 190.685 242.452 187.445 242.772C183.812 243.134 180.169 243.434 176.517 243.673C173.37 243.882 170.213 243.993 167.057 244.137C162.907 244.346 158.752 244.383 154.597 244.439C149.746 244.508 144.89 244.378 140.039 244.23C137.449 244.156 134.859 244.026 132.273 243.877C129.915 243.738 127.566 243.557 125.212 243.362C122.729 243.157 120.245 242.949 117.785 242.679C115.376 242.419 112.971 242.108 110.571 241.774C108.25 241.454 105.966 241.11 103.677 240.716C96.6676 239.504 89.7507 237.968 83.0335 235.544C80.6788 234.729 78.3871 233.743 76.1771 232.592C74.7646 231.849 73.4249 230.976 72.1755 229.983C71.2027 229.227 70.3443 228.334 69.627 227.332C68.9749 226.444 68.5567 225.407 68.4107 224.315C68.2764 223.083 68.5243 221.84 69.121 220.754C69.745 219.615 70.5546 218.587 71.5163 217.714C72.8884 216.455 74.3936 215.35 76.0053 214.418C78.676 212.863 81.4709 211.533 84.3612 210.439C89.2051 208.589 94.1641 207.056 99.2068 205.848C104.462 204.549 109.768 203.49 115.111 202.599C118.744 202.002 122.385 201.477 126.034 201.025C129.33 200.607 132.632 200.245 135.94 199.939C136.535 199.883 137.133 199.879 137.732 199.832C138.234 199.795 138.275 199.832 138.354 200.32C138.661 202.255 138.972 204.191 139.259 206.127C139.275 206.342 139.349 206.548 139.475 206.724C139.6 206.899 139.771 207.036 139.97 207.12C140.791 207.482 141.594 207.882 142.407 208.248C142.736 208.408 143.08 208.537 143.433 208.634C143.646 208.663 143.84 208.772 143.976 208.939C144.111 209.107 144.178 209.32 144.162 209.534C144.221 210.263 144.344 210.985 144.528 211.693C144.807 212.913 145.176 214.111 145.633 215.277C145.038 215.13 144.43 215.045 143.818 215.021C142.681 215.012 141.567 215.335 140.61 215.95C139.856 216.437 139.152 216.996 138.507 217.621C136.75 219.292 135.047 221.019 133.401 222.802C132.723 223.532 132.032 224.25 131.326 224.956C129.957 226.376 128.203 227.366 126.28 227.806C125.76 227.922 125.249 228.066 124.739 228.214C123.159 228.674 121.797 229.685 120.9 231.065C120.496 231.64 120.257 232.314 120.208 233.014C120.141 233.614 120.263 234.219 120.557 234.746C120.851 235.273 121.302 235.695 121.847 235.953C122.562 236.307 123.314 236.583 124.089 236.774C125.699 237.191 127.348 237.439 129.01 237.513C131.897 237.647 134.784 237.842 137.676 237.726C139.171 237.666 140.666 237.601 142.156 237.448C143.906 237.267 145.666 237.164 147.411 236.923C148.088 236.815 148.781 236.922 149.393 237.229C150.893 237.877 152.525 238.162 154.156 238.06C155.582 237.976 157.001 237.787 158.399 237.494C161.56 236.946 164.555 235.86 167.54 234.746C170.325 233.703 173.11 232.64 175.895 231.557C176.516 231.319 177.122 231.045 177.711 230.735C178.821 230.186 179.759 229.342 180.422 228.296C181.086 227.25 181.448 226.041 181.471 224.802C181.544 223.372 181.388 221.94 181.006 220.559C180.654 219.246 180.25 217.946 179.823 216.655C179.563 215.795 179.118 215.003 178.518 214.334C178.373 214.198 178.275 214.019 178.24 213.824C178.084 212.487 177.824 211.164 177.46 209.868L179.112 209.711C179.841 209.646 180.57 209.599 181.299 209.511C181.66 209.469 182.026 209.525 182.357 209.674C183.214 210.038 184.049 210.45 184.859 210.908C185.991 211.536 187.157 212.102 188.35 212.603C189.346 212.974 190.377 213.242 191.428 213.401C193.15 213.759 194.891 214.028 196.627 214.33C197.053 214.398 197.482 214.438 197.913 214.45C198.911 214.45 199.909 214.45 200.907 214.487C203.769 214.506 206.613 214.026 209.31 213.067C211.844 212.227 214.131 210.773 215.967 208.833C217.437 207.291 218.715 205.577 219.773 203.727C220.024 203.295 220.237 202.859 220.511 202.427C220.706 202.088 220.781 202.042 221.147 202.125C221.767 202.236 222.378 202.391 222.976 202.59C224.552 203.122 226.162 203.547 227.795 203.862C232.621 204.946 237.355 206.407 241.953 208.23C243.925 209.025 245.833 209.972 247.659 211.062C248.89 211.789 250.043 212.641 251.099 213.605C251.84 214.275 252.486 215.041 253.02 215.885C253.645 216.818 253.99 217.909 254.018 219.031C254.045 220.153 253.752 221.259 253.174 222.221V222.235Z" fill="black"/>
<path d="M154.175 87.7562H154.583C154.491 87.8769 154.388 88.0162 154.217 87.9837C154.045 87.9512 154.017 87.8676 154.175 87.7562Z" fill="#6F5B5B"/>
<path d="M154.175 235.243C153.356 235.261 152.537 235.193 151.733 235.038C151.334 234.941 151.148 234.755 151.241 234.574C151.371 234.3 151.622 234.365 151.845 234.384C152.469 234.473 153.098 234.531 153.729 234.555C155.893 234.51 158.032 234.091 160.052 233.316C160.736 233.059 161.406 232.765 162.057 232.434C164.371 231.268 166.624 229.986 168.807 228.59C169.426 228.191 170.045 227.8 170.664 227.416C172.199 226.475 173.904 225.844 175.682 225.559C175.904 225.488 176.141 225.477 176.369 225.526C176.536 225.587 176.675 225.67 176.671 225.87C176.671 225.936 176.648 226.001 176.607 226.053C176.566 226.105 176.508 226.142 176.443 226.158C176.189 226.233 175.93 226.293 175.668 226.339C173.796 226.654 172.011 227.361 170.432 228.414C168.046 229.985 165.582 231.435 163.051 232.759C161.002 233.867 158.787 234.635 156.491 235.034C155.723 235.144 154.95 235.214 154.175 235.243V235.243Z" fill="#030200"/>
<path d="M140.16 234.504C137.606 234.517 135.053 234.362 132.519 234.04C130.616 233.789 128.708 233.543 126.819 233.195C126.591 233.158 126.367 233.099 126.15 233.019C126.109 233.01 126.071 232.993 126.037 232.968C126.004 232.943 125.976 232.911 125.956 232.875C125.936 232.838 125.923 232.798 125.92 232.756C125.917 232.715 125.922 232.673 125.937 232.634C125.957 232.57 125.997 232.515 126.05 232.475C126.103 232.436 126.167 232.413 126.234 232.411C126.332 232.397 126.432 232.397 126.531 232.411C129.112 232.875 131.711 233.186 134.316 233.469C136.723 233.731 139.146 233.824 141.567 233.748C141.998 233.748 142.43 233.724 142.862 233.724C143.027 233.725 143.191 233.738 143.354 233.766C143.42 233.776 143.481 233.807 143.527 233.856C143.573 233.905 143.6 233.969 143.605 234.035C143.614 234.101 143.601 234.168 143.569 234.226C143.536 234.284 143.485 234.33 143.424 234.356C143.144 234.465 142.846 234.515 142.546 234.504H140.16Z" fill="#050300"/>
<path d="M171.486 120.567C171.486 120.822 171.207 121.003 171.021 120.92C170.879 120.839 170.742 120.747 170.613 120.646C169.654 119.976 168.53 119.58 167.363 119.499C166.636 119.405 165.898 119.524 165.237 119.843C165.056 119.931 164.852 119.982 164.699 119.792C164.546 119.602 164.699 119.365 164.935 119.225C165.578 118.873 166.306 118.703 167.038 118.733C168.336 118.738 169.606 119.104 170.706 119.792C170.925 119.938 171.128 120.106 171.314 120.293C171.391 120.37 171.45 120.464 171.486 120.567V120.567Z" fill="#0B0707"/>
<path d="M162.503 104.58C162.09 104.585 161.68 104.503 161.301 104.338C161.191 104.272 161.094 104.187 161.013 104.088C160.994 104.052 160.983 104.013 160.982 103.972C160.98 103.932 160.988 103.892 161.004 103.855C161.02 103.818 161.044 103.785 161.075 103.759C161.105 103.732 161.141 103.713 161.18 103.702C161.335 103.689 161.492 103.7 161.644 103.735C162.124 103.866 162.626 103.896 163.118 103.823C163.61 103.751 164.082 103.577 164.504 103.312C164.901 103.077 165.284 102.818 165.65 102.537C165.79 102.444 165.915 102.338 166.054 102.249C166.105 102.208 166.169 102.185 166.235 102.185C166.301 102.185 166.365 102.208 166.416 102.249C166.485 102.296 166.535 102.366 166.556 102.446C166.577 102.526 166.569 102.611 166.532 102.686C166.513 102.749 166.479 102.808 166.435 102.858C165.402 103.927 163.989 104.546 162.503 104.58V104.58Z" fill="#0C0808"/>
<path d="M173.755 104.867C173.379 104.83 173.082 104.798 172.785 104.774C171.337 104.677 170.367 103.846 169.605 102.695C169.573 102.637 169.549 102.574 169.536 102.509C169.515 102.446 169.515 102.379 169.537 102.317C169.559 102.254 169.601 102.201 169.656 102.166C169.71 102.126 169.775 102.104 169.842 102.104C169.909 102.104 169.974 102.126 170.028 102.166C170.145 102.279 170.255 102.4 170.357 102.528C170.545 102.758 170.745 102.978 170.956 103.187C171.407 103.63 171.994 103.906 172.623 103.971L173.709 104.069C173.873 104.075 174.036 104.095 174.196 104.129C174.278 104.143 174.352 104.187 174.402 104.252C174.453 104.317 174.477 104.4 174.47 104.482C174.465 104.565 174.432 104.643 174.376 104.705C174.321 104.766 174.246 104.807 174.164 104.821C174.03 104.849 173.893 104.865 173.755 104.867V104.867Z" fill="#0E0B0B"/>
<path d="M166.551 113.163C166.598 112.803 166.718 112.458 166.904 112.146C166.939 112.089 166.994 112.047 167.059 112.029C167.123 112.011 167.192 112.018 167.252 112.049C167.382 112.104 167.493 112.202 167.475 112.341C167.442 112.601 167.359 112.856 167.322 113.116C167.299 113.188 167.291 113.264 167.301 113.339C167.31 113.414 167.335 113.486 167.375 113.55C167.415 113.614 167.468 113.668 167.531 113.71C167.594 113.751 167.665 113.778 167.739 113.79C167.962 113.85 168.204 113.855 168.422 113.901C168.487 113.915 168.545 113.951 168.587 114.003C168.629 114.054 168.652 114.118 168.654 114.184C168.657 114.252 168.641 114.318 168.606 114.376C168.571 114.434 168.52 114.48 168.459 114.509C167.67 114.913 166.518 114.166 166.551 113.163V113.163Z" fill="#131010"/>
</svg>
